<?xml version="1.0" standalone="no"?>
<!DOCTYPE svg PUBLIC "-//W3C//DTD SVG 20010904//EN"
 "http://www.w3.org/TR/2001/REC-SVG-20010904/DTD/svg10.dtd">
<svg version="1.0" xmlns="http://www.w3.org/2000/svg"
 width="664.000000pt" height="664.000000pt" viewBox="0 0 664.000000 664.000000"
 preserveAspectRatio="xMidYMid meet">
<metadata>
Created by potrace 1.11, written by Peter Selinger 2001-2013
</metadata>
<g transform="translate(0.000000,664.000000) scale(0.100000,-0.100000)"
fill="#000000" stroke="none">
<path d="M2235 6511 c-170 -3 -316 -10 -323 -14 -16 -11 -6 -218 11 -229 7 -4
13 -38 14 -84 1 -72 0 -76 -19 -71 -19 5 -20 2 -15 -41 3 -25 12 -51 21 -57 9
-7 16 -19 16 -27 0 -8 5 -19 12 -26 9 -9 19 4 44 56 20 40 33 59 34 46 0 -12
9 -28 21 -35 20 -14 20 -15 2 -47 -10 -18 -24 -30 -31 -27 -15 5 -42 -17 -42
-34 0 -6 5 -11 10 -11 6 0 10 -5 10 -10 0 -6 -8 -10 -17 -8 -11 2 -19 -6 -23
-21 -3 -14 -12 -27 -19 -29 -11 -4 -13 3 -8 27 6 29 5 31 -9 17 -24 -24 -29
-79 -9 -99 15 -15 19 -15 43 -2 51 27 119 103 158 175 l19 35 3 -54 c3 -59
-21 -178 -43 -208 -9 -12 -11 -35 -8 -69 6 -58 -9 -113 -37 -139 -20 -18 -21
-17 -45 5 -17 16 -25 34 -25 57 0 22 -6 36 -16 40 -9 3 -27 29 -39 57 l-23 51
6 -50 c2 -27 9 -53 14 -56 4 -3 4 -29 -2 -59 -5 -29 -9 -118 -8 -199 l1 -146
7 125 c9 157 19 232 31 224 5 -3 9 -19 9 -35 0 -17 7 -43 15 -59 20 -39 28
-110 14 -127 -9 -10 -9 -17 -1 -25 17 -17 15 -28 -5 -28 -16 0 -18 -11 -19
-80 -1 -44 -5 -97 -9 -118 l-8 -37 -9 35 c-5 19 -13 51 -18 70 -7 26 -8 19 -3
-29 3 -35 9 -76 13 -91 4 -15 4 -47 -1 -71 -5 -24 -12 -128 -16 -230 -7 -219
-17 -200 124 -223 115 -20 292 -33 588 -46 132 -6 250 -13 261 -15 20 -4 21
-9 14 -41 -5 -20 -6 -51 -3 -69 3 -19 0 -35 -6 -39 -6 -4 -11 -19 -10 -34 l1
-27 8 25 c8 24 8 23 9 -8 1 -19 -3 -31 -8 -27 -12 7 -18 -31 -25 -155 -18
-303 -27 -446 -35 -540 -6 -58 -13 -168 -16 -245 l-6 -140 41 -49 c38 -45 52
-75 30 -61 -5 3 -10 3 -11 -2 -3 -52 -12 -86 -34 -128 l-26 -50 2 68 c2 64 -5
96 -15 66 -2 -8 -9 -95 -16 -194 -6 -99 -15 -227 -20 -285 -5 -57 -7 -106 -5
-108 9 -10 45 21 45 39 0 37 20 61 45 55 20 -5 24 -1 29 30 10 49 30 38 34
-19 2 -34 8 -50 22 -57 28 -15 50 -63 50 -109 0 -34 7 -47 51 -93 29 -29 58
-67 65 -85 12 -29 16 -31 52 -26 31 4 44 0 69 -21 18 -15 37 -42 43 -61 10
-30 14 -33 30 -25 26 14 53 13 74 -3 18 -13 18 -15 1 -41 -10 -15 -29 -32 -42
-37 -20 -7 -22 -11 -11 -34 16 -35 -10 -89 -56 -116 -29 -17 -34 -24 -27 -42
4 -12 4 -33 0 -47 -4 -14 -7 -38 -8 -53 -1 -16 -8 -44 -17 -63 -15 -31 -15
-35 4 -61 10 -15 22 -41 25 -58 6 -35 -18 -101 -40 -110 -14 -5 -13 -9 6 -26
20 -19 41 -59 41 -79 0 -4 -7 -11 -16 -14 -18 -7 -84 19 -84 33 0 19 -18 12
-25 -9 -9 -28 -61 -53 -94 -45 -14 4 -35 15 -47 26 -19 17 -22 18 -34 4 -13
-15 -80 -39 -114 -40 -13 0 -22 -10 -27 -28 -11 -42 -29 -59 -55 -53 -19 5
-24 1 -29 -24 -11 -50 -25 -34 -25 30 0 37 -4 60 -11 60 -7 0 -10 -22 -8 -62
2 -35 0 -68 -4 -74 -3 -6 -6 -47 -6 -90 1 -44 -4 -128 -10 -189 -25 -235 -28
-281 -20 -295 7 -13 8 -13 12 0 28 90 27 89 22 30 -3 -33 -13 -65 -25 -82 -40
-54 -19 -93 72 -132 35 -15 70 -31 78 -35 9 -5 31 -12 50 -16 l33 -7 -53 -26
c-51 -24 -52 -26 -29 -35 13 -5 38 -11 54 -13 33 -4 101 -26 111 -37 4 -4 21
-7 37 -7 29 0 29 0 23 45 -6 36 -4 45 7 45 15 0 27 -29 27 -67 0 -14 6 -23 15
-23 8 0 15 -8 15 -17 0 -13 5 -11 18 10 17 28 35 37 26 13 -3 -8 0 -17 7 -21
14 -9 368 -9 409 0 17 4 30 11 30 15 0 5 6 7 13 4 8 -3 34 2 58 10 24 9 52 16
61 16 23 0 34 20 17 31 -11 7 -11 9 3 9 15 0 23 -13 71 -117 15 -33 20 -21 6
13 -6 16 -15 46 -19 66 -7 38 -7 38 34 50 22 6 52 13 66 14 14 2 61 10 105 20
78 16 83 16 150 -4 92 -27 266 -43 407 -36 152 7 569 40 803 64 105 10 227 22
273 26 45 4 85 11 88 16 3 5 -11 6 -33 3 -57 -8 -520 -52 -743 -71 -280 -24
-623 -24 -719 -1 -111 27 -114 30 -42 62 63 29 91 55 91 87 0 12 -5 15 -17 11
-13 -5 -15 -3 -8 13 5 10 10 55 11 99 2 44 0 71 -2 60 -18 -80 -30 -113 -46
-134 -10 -13 -18 -28 -18 -32 0 -5 -8 -17 -18 -27 -52 -52 -148 -86 -169 -60
-25 31 -58 187 -43 202 5 5 10 26 10 46 0 92 66 232 130 277 11 8 20 20 20 26
0 7 15 29 33 50 84 99 80 86 72 202 -6 80 -11 107 -23 114 -14 8 -14 13 -4 36
15 33 9 43 -14 24 -16 -13 -17 -11 -10 26 4 22 12 45 17 52 10 12 3 308 -8
326 -9 15 -35 -33 -27 -51 4 -9 8 -42 9 -72 1 -30 6 -65 13 -77 16 -28 15 -33
-3 -33 -20 0 -19 -26 0 -34 13 -5 14 -10 4 -28 -7 -13 -14 -18 -16 -11 -3 7
-10 10 -17 7 -18 -7 -29 62 -16 105 6 22 5 43 -4 70 -12 31 -12 43 0 69 10 24
10 39 2 62 -14 42 -3 101 19 93 13 -5 14 -3 4 15 -9 17 -9 27 0 44 18 34 13
230 -7 241 -8 5 -12 16 -10 25 3 10 7 59 8 111 1 78 -1 95 -15 102 -29 17 -57
132 -62 258 -6 145 7 340 24 350 9 6 11 28 6 82 -7 89 -24 161 -36 153 -5 -3
-6 -16 -3 -29 3 -12 1 -26 -5 -29 -12 -8 -14 11 -5 67 4 20 12 37 19 37 13 0
12 47 -6 340 -6 96 -16 186 -21 200 -6 14 -10 70 -9 125 1 55 -6 200 -15 323
-9 122 -15 224 -13 227 2 2 74 6 159 10 499 20 778 49 814 85 7 7 6 31 -2 69
-7 32 -9 66 -6 75 10 27 -10 18 -28 -12 -26 -43 -50 -60 -94 -68 -39 -6 -42
-4 -48 20 -4 15 -1 36 5 47 6 12 14 60 19 107 5 62 12 87 24 94 9 5 16 16 16
25 0 21 16 6 23 -22 5 -19 5 -19 12 3 4 12 12 22 17 22 5 0 6 10 3 23 -3 12
-3 17 2 11 4 -6 20 -14 35 -18 l28 -6 -2 75 c0 42 -5 78 -10 81 -4 3 -8 20 -8
37 0 18 -7 50 -15 72 -8 22 -14 59 -15 83 0 23 -4 50 -9 60 -18 33 -41 90 -41
100 0 6 -12 12 -27 14 -23 2 -31 11 -43 46 -8 24 -20 40 -26 38 -7 -3 -20 1
-29 8 -15 11 -15 15 0 54 10 23 20 42 24 42 3 0 6 36 6 79 0 58 4 84 16 97 17
20 36 183 30 254 -3 32 -4 157 -2 198 1 9 -2 36 -5 60 -5 34 -3 42 9 42 9 0
20 -8 26 -17 9 -16 11 -15 20 9 13 34 32 46 45 26 8 -13 14 -10 38 23 15 21
28 50 28 63 0 21 -6 24 -52 30 -74 9 -2318 15 -2693 7z m236 -81 c-12 -45 -20
-129 -15 -155 8 -46 37 -105 52 -105 22 0 59 48 72 95 8 27 11 74 8 115 l-5
70 58 0 c68 0 109 -13 109 -35 0 -9 6 -18 14 -21 17 -6 56 -85 56 -112 0 -34
-134 -155 -161 -147 -10 3 -27 -2 -38 -11 -53 -46 -201 -24 -232 34 -7 12 -19
22 -26 22 -15 0 -63 47 -63 61 0 4 -11 20 -25 35 -33 36 -42 87 -22 129 18 38
26 40 142 40 66 0 79 -3 76 -15z m379 -10 c0 -16 -4 -30 -8 -30 -4 0 -16 14
-25 30 l-18 30 25 0 c22 0 26 -4 26 -30z m217 14 c-30 -16 -44 -14 -32 5 3 6
18 11 33 11 l27 -1 -28 -15z m228 -3 c-4 -15 -1 -18 17 -14 30 6 63 -31 72
-78 6 -32 4 -37 -16 -43 -13 -3 -36 -6 -52 -6 -22 0 -26 -3 -18 -13 15 -18 4
-100 -15 -114 -15 -12 -15 -13 -1 -13 17 0 78 -46 78 -58 -1 -4 -11 -19 -23
-34 -29 -35 -69 -45 -91 -23 -16 16 -17 16 -10 -9 11 -47 -14 -28 -42 31 -34
71 -44 182 -22 234 9 19 20 46 26 60 24 60 115 135 97 80z m103 -6 c0 -14 -4
-25 -9 -25 -5 0 -9 4 -9 9 0 5 -3 16 -6 25 -4 10 -1 16 9 16 9 0 15 -10 15
-25z m218 10 c-3 -8 -9 -22 -13 -32 -5 -12 -3 -14 7 -8 10 6 12 4 7 -9 -5 -13
-3 -17 7 -13 8 3 16 2 18 -3 2 -5 14 0 28 10 25 19 25 20 3 20 -18 0 -43 25
-43 43 0 14 79 1 105 -17 64 -44 125 -141 125 -200 0 -31 -3 -36 -14 -27 -10
8 -16 8 -25 -3 -6 -8 -28 -17 -48 -21 -29 -5 -40 -3 -49 10 -7 9 -30 23 -51
30 -35 12 -38 17 -35 46 1 18 7 39 14 46 8 9 7 13 -2 13 -18 0 -90 53 -90 68
0 16 -4 15 -42 -8 -18 -11 -38 -20 -45 -20 -15 0 -47 66 -38 79 3 7 44 11 97
11 76 0 89 -2 84 -15z m228 -6 c-3 -5 -10 -7 -15 -3 -5 3 -7 10 -3 15 3 5 10
7 15 3 5 -3 7 -10 3 -15z m75 7 c9 -11 10 -20 1 -35 -14 -27 -24 -26 -39 3
-21 39 11 65 38 32z m141 10 c0 -12 -59 -64 -75 -68 -13 -2 -19 -11 -18 -25 3
-27 -23 -51 -39 -35 -9 9 -7 16 5 30 10 11 17 35 17 60 l0 42 55 0 c30 0 55
-2 55 -4z m210 -38 c48 -49 85 -117 95 -172 7 -33 10 -37 31 -32 49 13 96 -94
75 -174 -22 -81 -91 -151 -130 -131 -17 10 -22 7 -35 -17 -23 -44 -112 -121
-171 -148 -82 -38 -91 -30 -48 41 21 33 41 63 46 66 5 4 7 11 3 17 -12 19 20
33 49 22 42 -16 43 -2 2 15 -71 30 -15 61 62 34 18 -6 34 -9 37 -6 4 4 -58 30
-103 42 -6 2 -9 13 -6 25 6 21 10 22 72 15 36 -3 77 -8 91 -11 20 -3 19 -1 -8
11 -18 8 -55 17 -82 18 -27 2 -52 6 -56 9 -3 4 -3 20 1 38 7 30 7 30 55 24 27
-4 66 -3 87 2 35 7 32 8 -40 15 -82 7 -104 17 -94 43 5 11 20 16 49 16 24 0
50 5 58 10 11 7 -2 10 -42 10 -49 0 -58 3 -58 18 0 13 12 22 38 29 l37 10 -37
2 c-36 1 -37 2 -37 39 0 20 -4 61 -10 91 -14 70 -14 71 9 71 10 0 38 -19 60
-42z m388 34 c107 -2 104 6 49 -110 -29 -61 -32 -64 -35 -38 -3 21 -6 26 -12
16 -7 -12 -12 -11 -29 4 -21 19 -21 19 -21 0 0 -11 7 -29 15 -41 15 -21 11
-53 -6 -53 -5 0 -9 -7 -9 -15 0 -9 -9 -15 -25 -15 -19 0 -25 -5 -26 -22 -1
-21 -2 -21 -6 -3 -7 28 -33 55 -52 55 -9 0 -24 9 -33 20 -10 11 -30 23 -45 26
-57 14 -56 42 1 120 44 60 44 61 92 59 27 -1 91 -2 142 -3z m-2636 -55 c-5
-73 -23 -172 -33 -182 -14 -14 -27 10 -35 62 -5 33 -2 47 14 67 10 14 22 22
26 19 3 -3 7 7 8 23 0 16 2 34 3 39 2 6 3 14 4 19 0 5 4 6 8 2 4 -4 6 -26 5
-49z m114 32 c19 -21 19 -21 -9 -8 -15 7 -27 16 -27 21 0 14 16 9 36 -13z
m2709 11 c-3 -5 -10 -10 -16 -10 -5 0 -9 5 -9 10 0 6 7 10 16 10 8 0 12 -4 9
-10z m-2751 -26 c4 -9 4 -19 1 -22 -7 -8 -35 19 -29 29 8 14 21 11 28 -7z
m916 -4 c0 -11 5 -20 12 -20 8 0 7 -6 -4 -16 -17 -18 -38 -11 -38 12 0 17 -12
18 -28 2 -18 -18 -14 -1 5 22 23 26 53 26 53 0z m105 -14 c-9 -13 -23 -27 -31
-30 -23 -9 -16 -26 12 -26 23 0 25 -2 14 -15 -9 -11 -16 -13 -24 -5 -5 5 -23
10 -38 10 -35 0 -35 14 0 47 15 14 26 29 25 34 -2 5 11 9 27 9 30 0 30 0 15
-24z m966 -5 c24 -20 24 -20 4 -35 -11 -8 -17 -18 -13 -22 4 -4 14 -1 22 5 12
10 17 8 25 -8 18 -32 14 -108 -6 -119 -15 -9 -15 -13 4 -53 22 -45 19 -61 -13
-93 -13 -14 -13 -21 -3 -50 10 -27 10 -43 0 -75 -13 -47 -25 -51 -51 -18 -10
12 -22 19 -26 14 -4 -4 3 -18 16 -32 24 -26 26 -24 -24 -39 -11 -4 -13 -15 -9
-43 l6 -38 -22 28 c-12 15 -31 27 -42 27 -10 0 -19 7 -19 15 0 9 -7 30 -16 47
-13 25 -13 35 -4 59 15 35 36 37 90 9 49 -25 50 -25 37 3 -7 15 -26 28 -54 37
-47 13 -57 30 -19 30 32 0 86 20 86 32 0 5 -9 12 -20 15 -24 6 -24 7 -8 33 10
15 10 26 0 52 -6 17 -9 34 -7 37 3 2 24 -13 47 -35 l41 -39 -19 33 c-19 34
-59 73 -104 103 -33 22 -23 30 25 19 24 -6 44 -5 49 0 14 14 0 23 -34 23 -35
0 -35 0 -14 33 12 17 22 23 35 19 14 -5 19 -1 19 13 0 11 -6 23 -12 25 -9 4
-9 6 -2 6 7 1 22 -8 35 -18z m-1941 -26 c0 -2 -9 -9 -20 -15 -16 -9 -20 -8
-20 5 0 8 9 15 20 15 11 0 20 -2 20 -5z m2644 -43 c-4 -15 -11 -32 -16 -39 -5
-7 -5 -14 2 -18 18 -11 9 -85 -11 -85 -14 0 -30 78 -23 116 7 38 30 68 45 58
5 -3 6 -17 3 -32z m-2694 -14 c0 -13 -35 -78 -42 -78 -13 0 -9 25 6 46 8 11
11 23 6 29 -6 7 -2 11 11 11 10 0 19 -4 19 -8z m933 -53 c16 -14 26 -29 23
-34 -3 -4 3 -16 14 -26 11 -10 20 -29 20 -41 0 -22 -2 -23 -25 -12 -14 6 -24
16 -22 22 2 6 -5 28 -16 49 -19 36 -23 39 -58 35 -44 -4 -50 4 -16 20 34 16
49 14 80 -13z m-909 -17 c3 -16 2 -28 -3 -28 -13 0 -24 37 -16 51 9 13 11 11
19 -23z m152 -39 l34 -54 -48 -42 c-38 -34 -49 -40 -60 -30 -9 10 -10 21 -3
43 6 16 15 55 21 87 7 32 14 56 17 54 2 -3 20 -29 39 -58z m831 14 c-11 -10
-27 8 -27 30 l0 21 16 -22 c9 -13 14 -26 11 -29z m-92 -59 c21 -25 51 -52 66
-60 16 -8 29 -19 29 -24 0 -16 -30 -11 -36 5 -4 8 -15 15 -25 15 -10 0 -19 7
-19 15 0 9 -7 18 -15 21 -8 4 -15 12 -15 19 0 8 -18 24 -40 36 -47 26 -53 42
-11 28 16 -6 46 -30 66 -55z m-922 29 c-9 -3 -6 -11 7 -26 22 -23 26 -37 10
-37 -5 0 -10 5 -10 10 0 6 -6 10 -14 10 -18 0 -28 40 -14 57 8 11 14 11 22 2
8 -8 8 -13 -1 -16z m731 -78 c-1 -124 -12 -136 -64 -75 -60 69 -60 77 -5 127
26 24 52 43 58 43 8 0 12 -29 11 -95z m-857 53 c-3 -7 -5 -2 -5 12 0 14 2 19
5 13 2 -7 2 -19 0 -25z m1907 -14 c8 -21 7 -26 -3 -43 -8 -12 -16 -10 -45 12
-19 15 -39 27 -45 27 -6 0 -11 5 -11 10 0 6 22 10 49 10 35 0 51 -4 55 -16z
m-154 -27 c71 -16 100 -33 100 -59 0 -17 2 -18 15 -8 27 22 27 4 2 -47 -27
-52 -60 -86 -123 -127 -52 -34 -189 -60 -236 -45 -65 21 -65 21 -34 34 23 10
25 13 11 18 -21 9 -12 57 19 102 11 16 22 32 23 34 5 8 63 -42 63 -55 0 -8 5
-14 10 -14 6 0 10 6 10 13 0 11 13 18 75 42 11 5 23 7 28 7 4 -1 7 4 7 12 0 9
-12 16 -27 18 -30 3 -39 23 -29 64 7 27 10 27 86 11z m-1655 -17 c-3 -5 -1
-11 5 -15 6 -4 8 -11 4 -16 -9 -16 -24 1 -24 27 0 15 4 23 10 19 6 -4 8 -10 5
-15z m956 -27 c35 -21 37 -36 6 -52 -28 -15 -62 -3 -96 33 -19 21 -21 26 -8
26 9 0 19 -4 22 -10 10 -16 25 -12 19 5 -8 21 20 19 57 -2z m1754 7 c-3 -5
-11 -10 -16 -10 -6 0 -7 5 -4 10 3 6 11 10 16 10 6 0 7 -4 4 -10z m-2383 -55
c-8 -18 -19 -25 -34 -24 -53 5 -66 -1 -84 -38 l-18 -38 -9 35 c-8 33 -6 37 29
67 30 24 45 30 66 26 23 -4 28 -2 28 13 0 17 1 17 17 2 14 -14 15 -22 5 -43z
m227 4 c-11 -21 -10 -22 22 -17 31 5 37 2 62 -32 15 -21 27 -42 27 -48 0 -5 9
-17 20 -27 26 -24 28 -88 3 -83 -12 2 -20 16 -24 42 -7 42 -38 76 -70 76 -12
0 -26 15 -39 41 -21 40 -21 69 0 69 7 0 7 -7 -1 -21z m2123 -6 c6 -43 -2 -65
-20 -61 -17 3 -28 48 -18 74 9 24 34 15 38 -13z m-2220 5 c35 2 38 -1 93 -78
31 -45 79 -106 106 -136 30 -34 49 -63 49 -79 0 -88 -120 -1 -219 158 -29 48
-57 87 -61 87 -3 0 -24 -15 -46 -33 -73 -61 -166 -127 -179 -127 -27 0 -65 20
-65 33 0 8 37 37 83 65 45 27 100 66 122 86 29 25 46 33 60 28 11 -3 36 -5 57
-4z m884 -4 c-3 -9 -6 -20 -6 -25 0 -13 -49 -32 -77 -31 -16 1 -21 -3 -17 -13
9 -22 -14 -18 -26 5 -10 18 -7 24 13 21 4 0 7 3 7 8 0 15 63 51 89 51 17 0 22
-4 17 -16z m-286 -4 c0 -5 -11 -10 -25 -10 -14 0 -25 5 -25 10 0 6 11 10 25
10 14 0 25 -4 25 -10z m18 -63 c30 -28 28 -40 -13 -76 -37 -32 -55 -39 -55
-20 0 6 -12 9 -27 7 -24 -3 -28 1 -31 25 -2 19 -9 27 -23 27 -27 0 -24 15 6
28 14 6 25 15 25 20 0 5 21 9 48 10 35 0 53 -5 70 -21z m270 -33 c-26 -43 -44
-52 -66 -30 -15 15 -15 17 3 31 11 8 30 18 43 21 12 3 22 10 22 16 0 5 4 7 9
3 6 -3 1 -21 -11 -41z m1122 10 c0 -8 -4 -12 -10 -9 -5 3 -10 10 -10 16 0 5 5
9 10 9 6 0 10 -7 10 -16z m-620 -55 c0 -4 -4 -11 -10 -14 -16 -10 -12 -23 9
-30 24 -7 36 -64 20 -99 -15 -33 -20 -33 -47 4 -19 25 -21 35 -13 70 5 22 7
49 4 60 -3 11 -2 28 2 37 6 17 7 17 21 -1 8 -11 14 -23 14 -27z m848 16 c-3
-3 -9 2 -12 12 -6 14 -5 15 5 6 7 -7 10 -15 7 -18z m-2219 -61 c54 -81 60
-106 35 -142 -22 -32 -60 -26 -57 8 1 14 0 46 -3 71 -4 37 -11 49 -31 58 -47
22 -73 -3 -88 -83 -8 -42 -32 -48 -41 -11 -13 53 4 91 59 133 28 23 57 41 64
41 6 1 34 -33 62 -75z m1992 36 c5 0 9 -6 9 -13 0 -8 11 -19 25 -25 l25 -12
-20 -32 c-25 -41 -25 -48 0 -48 11 0 23 -7 27 -16 5 -14 8 -13 20 7 13 23 14
22 8 -18 -3 -26 -1 -43 5 -43 5 0 10 -9 10 -19 0 -11 5 -23 11 -27 6 -3 9 -17
6 -30 -2 -14 0 -27 4 -30 16 -9 10 -24 -13 -34 -13 -6 -44 -23 -70 -39 -55
-35 -62 -32 -126 52 -28 36 -42 64 -42 84 0 17 -11 70 -25 117 -14 47 -25 88
-25 91 0 3 13 5 28 5 16 0 37 9 47 20 10 11 28 20 41 20 13 0 26 6 31 13 5 9
8 7 11 -5 2 -10 8 -18 13 -18z m-1651 8 c0 -7 11 -35 25 -63 l26 -49 -23 -18
c-26 -20 -18 -24 14 -7 15 8 23 8 31 0 8 -8 -1 -24 -33 -57 -44 -45 -44 -46
-12 -30 18 9 38 25 45 36 6 11 17 20 24 20 27 0 11 -41 -38 -95 -70 -76 -54
-82 20 -7 58 60 71 65 71 31 0 -19 -77 -137 -118 -181 -14 -16 -21 -28 -15
-28 16 0 99 95 130 147 13 24 28 43 31 43 3 0 16 -10 29 -21 l22 -22 -25 -30
c-31 -37 -68 -109 -82 -159 -6 -21 -9 -38 -8 -38 2 0 17 28 34 63 40 80 88
147 106 147 23 0 29 -20 13 -38 -17 -19 -47 -104 -46 -130 0 -12 4 -10 11 8
52 116 60 130 79 130 23 0 23 -7 4 -53 -25 -60 -16 -76 10 -19 26 56 45 64 55
21 5 -21 7 -22 13 -5 6 14 10 16 21 7 7 -6 34 -14 60 -17 59 -9 67 -21 30 -51
-63 -50 -240 -86 -276 -55 -17 13 -28 6 -28 -17 0 -8 -10 -25 -22 -38 -26 -28
-102 -32 -147 -8 -62 32 -95 173 -51 220 19 20 19 23 5 53 -27 52 -37 146 -25
229 5 41 10 79 10 84 0 5 7 9 15 9 8 0 15 -6 15 -12z m310 -7 c-5 -11 -10 -28
-10 -37 0 -15 4 -14 25 6 25 23 33 14 16 -18 -4 -9 -11 -32 -14 -49 -6 -28 -4
-33 13 -33 10 0 22 5 25 11 5 6 13 3 22 -10 10 -16 25 -21 56 -21 53 0 38 -18
-30 -35 -40 -10 -49 -10 -51 1 -4 15 -28 19 -36 6 -2 -4 -1 -14 4 -21 13 -22
114 -7 182 27 56 27 75 28 43 2 -8 -7 -15 -18 -15 -25 0 -7 -6 -15 -14 -18 -9
-3 -12 -15 -9 -31 6 -30 18 -34 27 -8 11 28 30 62 36 62 3 0 11 -12 18 -27 10
-23 10 -29 -3 -36 -10 -5 -13 -16 -9 -33 4 -14 2 -24 -4 -24 -6 0 -12 10 -14
23 -4 31 -22 28 -26 -6 -3 -24 -6 -26 -30 -21 -44 11 -81 36 -84 58 -3 18 -12
22 -58 26 -54 5 -55 6 -66 45 -8 30 -16 39 -30 38 -29 -4 -67 15 -87 43 -18
24 -18 26 -1 45 9 10 27 19 38 19 12 0 34 14 50 30 33 34 52 39 36 11z m646
-73 c-9 -5 -16 -16 -16 -25 0 -10 -12 -29 -27 -45 -22 -23 -24 -30 -13 -43 17
-20 4 -33 -15 -14 -12 11 -13 22 -4 53 11 40 6 71 -11 61 -11 -7 -13 6 -4 29
9 25 24 19 24 -9 0 -14 5 -25 10 -25 6 0 10 6 10 14 0 7 10 26 22 41 l22 28 9
-28 c8 -22 6 -30 -7 -37z m-776 32 c0 -5 -5 -10 -11 -10 -5 0 -7 5 -4 10 3 6
8 10 11 10 2 0 4 -4 4 -10z m1684 -36 c10 -27 7 -52 -9 -68 -12 -11 -13 -21
-6 -34 5 -10 6 -33 3 -51 l-7 -33 -20 22 c-26 29 -26 104 0 148 22 36 30 39
39 16z m-1044 -45 c0 -4 -7 -6 -15 -3 -9 4 -15 0 -15 -9 0 -8 7 -20 15 -27 8
-7 15 -16 15 -21 0 -12 -51 -11 -70 1 -9 5 -19 5 -26 -1 -8 -6 -16 -2 -27 15
-15 23 -15 24 8 30 14 4 34 1 44 -6 23 -14 40 -3 23 14 -24 24 -14 38 18 27
17 -6 30 -15 30 -20z m270 -4 c0 -8 -4 -17 -10 -20 -6 -4 -10 5 -10 20 0 15 4
24 10 20 6 -3 10 -12 10 -20z m360 -32 c9 -43 10 -65 1 -88 -6 -18 -11 -47
-11 -66 0 -19 -11 -86 -24 -149 l-24 -115 74 -74 c77 -77 119 -148 126 -211 5
-51 -19 -45 -62 15 -19 27 -63 79 -96 115 -52 55 -64 74 -73 120 -6 30 -15 61
-20 68 -5 8 -1 42 10 81 16 63 40 199 54 314 9 67 30 62 45 -10z m-2064 -1
c21 -11 47 -29 57 -40 18 -20 18 -20 -1 -15 -26 6 -37 -13 -20 -34 10 -13 10
-17 1 -20 -7 -3 -13 -10 -13 -17 0 -7 -13 -30 -30 -52 -16 -21 -30 -46 -30
-54 -1 -16 -23 -50 -34 -50 -3 0 -6 10 -6 21 0 12 -7 27 -15 33 -14 10 -14 15
0 50 16 39 14 66 -5 66 -5 0 -10 -9 -10 -21 0 -11 -4 -17 -10 -14 -5 3 -9 27
-8 53 1 26 -2 62 -6 80 -12 49 5 64 53 47 21 -7 56 -22 77 -33z m1262 -2 c1
-10 -5 -16 -18 -17 -14 -1 -20 4 -20 18 0 24 33 23 38 -1z m302 -10 c0 -11 -4
-20 -10 -20 -5 0 -10 9 -10 20 0 11 5 20 10 20 6 0 10 -9 10 -20z m-236 -43
c13 -9 15 -16 8 -21 -6 -4 -8 -14 -5 -23 4 -11 3 -14 -5 -9 -14 8 -32 -31 -25
-51 7 -17 -12 -16 -26 1 -9 10 -9 15 -1 18 8 2 6 14 -6 35 -15 26 -16 35 -6
57 13 28 21 27 66 -7z m536 -22 c-25 -97 -32 -116 -43 -113 -18 5 -137 72
-137 78 0 11 114 75 143 81 43 7 48 0 37 -46z m130 16 c0 -11 -8 -27 -17 -37
-14 -14 -18 -35 -19 -93 0 -42 -4 -90 -8 -108 l-8 -31 -29 29 c-30 30 -37 63
-18 74 6 4 8 13 5 20 -4 11 15 115 29 153 2 6 18 12 35 12 23 0 30 -4 30 -19z
m-1850 -80 c0 -11 -8 -6 -25 14 -32 39 -32 55 0 25 14 -13 25 -31 25 -39z
m1240 44 c0 -8 -4 -15 -9 -15 -13 0 -22 16 -14 24 11 11 23 6 23 -9z m-854
-19 c15 -23 14 -27 -10 -63 -14 -21 -26 -44 -26 -51 0 -18 -43 -92 -53 -92 -5
0 -5 10 -2 23 4 12 9 30 11 40 3 9 1 17 -5 17 -6 0 -11 7 -11 16 0 12 -5 10
-19 -7 -13 -17 -16 -26 -8 -31 13 -8 20 -78 8 -78 -5 0 -14 7 -21 15 -19 23
-31 18 -24 -10 4 -15 2 -25 -5 -25 -6 0 -11 3 -11 8 0 4 -9 22 -21 41 -18 30
-22 32 -37 19 -9 -8 -25 -18 -34 -21 -10 -4 -18 -12 -18 -19 0 -8 -8 -21 -19
-30 -10 -8 -20 -21 -22 -27 -5 -14 -49 -2 -49 13 0 6 5 18 10 26 9 13 11 13
20 0 15 -23 12 4 -4 34 -10 19 -11 39 -5 72 5 25 8 48 8 52 -3 20 4 29 34 47
l32 18 -20 -23 c-14 -16 -16 -24 -7 -27 17 -6 15 -23 -3 -23 -8 0 -15 -9 -15
-20 0 -11 5 -20 10 -20 6 0 10 5 10 10 0 6 7 10 15 10 8 0 15 7 15 15 0 8 12
22 26 32 l26 17 -21 17 c-18 14 -18 18 -5 23 9 3 29 6 44 6 16 0 32 5 35 10 3
6 40 10 80 10 68 0 76 -2 91 -24z m-428 -15 c3 -8 -1 -12 -9 -9 -7 2 -15 10
-17 17 -3 8 1 12 9 9 7 -2 15 -10 17 -17z m-30 -23 c16 -16 15 -28 -3 -28 -8
0 -12 -6 -9 -14 4 -11 10 -11 30 -2 13 6 24 17 24 24 0 6 5 12 11 12 7 0 9
-22 6 -67 -3 -38 -6 -69 -6 -71 -1 -1 -11 -7 -23 -12 l-23 -9 23 -7 c28 -8 27
-47 -1 -52 -40 -8 -101 37 -69 50 16 6 0 78 -19 88 -14 8 -17 7 -13 -4 3 -8 1
-17 -5 -21 -14 -8 -14 12 2 56 22 63 49 83 75 57z m1586 -33 c22 -8 43 -21 48
-29 5 -9 17 -16 26 -16 23 -1 68 -40 76 -66 3 -11 17 -26 29 -33 23 -12 50
-62 74 -136 15 -47 17 -191 3 -200 -5 -3 -6 -15 -1 -26 7 -21 -8 -101 -22
-115 -4 -4 -7 -15 -7 -25 0 -10 -5 -30 -12 -44 -13 -29 -56 -34 -99 -11 -14 7
-47 17 -74 20 -33 5 -49 13 -52 26 -3 12 -18 19 -46 23 -24 3 -46 13 -52 23
-5 9 -20 29 -32 44 -12 14 -23 37 -25 51 -2 13 -7 30 -11 37 -5 7 -7 30 -6 52
2 21 0 42 -4 46 -8 8 2 54 15 71 6 7 5 19 -3 31 -7 12 -9 27 -4 38 4 11 7 25
6 32 -1 8 4 23 12 35 8 12 17 43 21 69 4 25 14 52 21 58 8 7 15 18 15 24 0 36
40 44 104 21z m495 -45 l22 -30 -30 -6 c-51 -10 -77 -75 -51 -125 14 -26 66
-26 82 1 19 30 26 25 26 -20 1 -28 -6 -48 -22 -67 l-24 -27 -34 29 c-18 17
-44 42 -57 58 l-23 27 18 88 c9 48 19 90 21 95 10 18 51 5 72 -23z m274 -45
c10 -35 16 -68 16 -72 -1 -4 3 -21 10 -37 6 -16 9 -32 5 -35 -4 -3 -9 0 -11 7
-3 6 -11 12 -19 12 -8 0 -14 5 -14 10 0 6 -7 10 -15 10 -9 0 -12 -6 -9 -15 4
-8 15 -15 25 -15 25 0 24 -22 -1 -45 -16 -15 -22 -15 -35 -5 -8 7 -15 8 -15 2
0 -13 56 -36 74 -29 16 7 30 -54 14 -64 -7 -4 -6 -9 1 -13 6 -4 11 -12 11 -17
0 -6 -4 -7 -10 -4 -13 8 -13 -11 1 -37 8 -15 8 -19 0 -13 -16 9 -41 -13 -41
-36 0 -12 -10 -23 -25 -29 -14 -5 -35 -25 -46 -44 -21 -36 -44 -39 -53 -8 -31
109 -41 188 -39 305 2 145 3 149 81 188 26 13 51 30 55 37 15 23 23 12 40 -53z
m73 36 c4 -17 14 -31 25 -34 20 -6 27 -51 9 -62 -31 -19 -70 28 -70 84 0 49
27 58 36 12z m-1036 11 c0 -4 -13 -46 -29 -92 -19 -56 -33 -84 -42 -82 -7 2
-42 19 -77 39 -55 31 -63 39 -60 61 3 24 10 28 73 43 39 9 81 22 95 27 31 13
40 14 40 4z m-1440 -72 c0 -5 -4 -10 -10 -10 -5 0 -10 5 -10 10 0 6 5 10 10
10 6 0 10 -4 10 -10z m290 -12 c0 -7 -4 -19 -9 -27 -11 -17 -23 1 -15 23 7 19
24 21 24 4z m-300 -28 c0 -5 -9 -10 -21 -10 -11 0 -17 5 -14 10 3 6 13 10 21
10 8 0 14 -4 14 -10z m255 -20 c3 -5 -1 -10 -10 -10 -9 0 -13 5 -10 10 3 6 8
10 10 10 2 0 7 -4 10 -10z m1047 -102 c18 -12 25 -24 21 -35 -5 -12 -1 -14 18
-8 20 6 22 5 12 -6 -18 -18 -17 -45 0 -30 8 6 16 9 19 6 9 -9 -4 -55 -16 -55
-6 0 -4 -5 4 -10 25 -16 -2 -10 -39 8 -23 11 -37 28 -45 51 -6 19 -20 39 -31
45 -11 6 -23 15 -27 20 -4 6 -13 4 -22 -3 -19 -16 -46 -7 -46 15 0 10 5 14 15
10 10 -3 15 1 15 12 0 10 5 23 12 30 12 12 37 0 110 -50z m-363 -53 c33 -94
35 -107 34 -225 -2 -124 -12 -180 -34 -180 -7 0 -8 7 -4 18 15 36 28 139 21
165 -6 27 -35 38 -38 15 0 -7 -2 -17 -3 -23 -2 -5 -3 -14 -4 -20 -1 -5 -6 -2
-12 8 -5 9 -19 17 -30 17 -10 0 -27 4 -37 9 -9 5 -37 17 -60 27 -40 16 -42 19
-22 26 21 8 21 9 6 33 -15 23 -15 25 -1 25 9 0 14 4 10 9 -3 5 -1 12 4 16 5 3
14 -3 20 -12 9 -17 10 -17 17 2 4 11 14 28 21 37 14 15 11 16 -31 13 -42 -2
-45 -1 -35 16 5 11 7 19 3 19 -3 0 -1 7 6 15 7 9 19 14 26 11 8 -3 13 -2 12 2
-1 4 9 24 21 45 19 31 29 37 50 35 23 -3 29 -13 60 -103z m-884 45 c3 -11 3
-24 0 -30 -8 -13 -35 -13 -35 0 0 18 -18 10 -23 -10 -5 -21 -47 -29 -47 -10 0
20 30 69 47 79 22 12 49 -2 58 -29z m1052 -8 c71 -56 140 -102 213 -142 57
-31 65 -39 72 -74 5 -21 19 -52 33 -68 36 -42 39 -67 16 -126 -11 -29 -30 -94
-42 -144 -29 -129 -33 -138 -68 -138 -53 0 -54 49 -7 215 19 66 40 133 46 150
11 28 9 32 -25 59 -20 16 -50 36 -68 45 -139 74 -220 139 -235 189 -25 84 -9
92 65 34z m1484 -2 c4 -29 -8 -53 -22 -45 -10 7 -12 68 -2 78 10 11 21 -4 24
-33z m-2362 -34 c29 -46 36 -89 18 -104 -24 -20 -50 13 -44 54 5 30 4 32 -13
22 -33 -21 -66 22 -38 50 23 23 55 14 77 -22z m-359 -5 c0 -3 -7 -15 -15 -25
-22 -29 -39 -8 -25 28 9 23 13 26 25 16 8 -7 15 -15 15 -19z m244 -33 c3 -13
6 -37 6 -54 0 -27 4 -32 30 -37 39 -8 70 -58 70 -115 0 -32 5 -44 18 -49 24
-9 122 -111 122 -128 0 -11 10 -13 43 -9 36 5 48 2 74 -20 17 -14 36 -40 43
-58 8 -18 14 -34 15 -36 2 -1 13 2 26 8 28 13 79 -1 79 -21 0 -7 -18 -29 -40
-51 -44 -41 -56 -43 -168 -32 l-61 7 23 31 c13 17 32 45 42 61 18 29 18 29
-26 -8 -56 -47 -140 -92 -140 -75 0 6 5 38 12 70 9 45 9 61 0 70 -9 9 -12 5
-12 -18 -1 -16 -6 -42 -13 -58 l-13 -29 -28 39 c-16 22 -41 48 -54 60 -32 26
-25 47 25 73 28 15 33 20 18 21 -12 0 -38 -9 -60 -20 -22 -11 -41 -20 -42 -20
-14 0 11 120 45 209 13 35 -25 -9 -44 -51 l-19 -43 -5 40 -5 40 -17 -30 -16
-30 -7 40 c-15 82 -24 69 -25 -32 0 -108 -11 -134 -33 -81 -8 18 -22 40 -32
48 -10 8 -16 11 -14 5 43 -91 44 -105 13 -105 -8 0 -28 -7 -44 -15 l-30 -16 0
38 c0 28 -3 34 -10 23 -5 -8 -10 -33 -10 -54 0 -50 -12 -38 -35 34 -22 68 -39
90 -30 38 5 -25 4 -38 -4 -38 -6 0 -11 -10 -11 -21 0 -18 -2 -19 -15 -9 -28
23 -25 4 5 -36 16 -22 34 -53 39 -68 10 -24 8 -28 -16 -37 -47 -18 -68 -8 -69
31 -1 19 -4 62 -8 95 -4 33 -3 73 2 90 5 17 4 49 -1 77 -10 51 -2 75 14 45 13
-23 25 -22 32 3 6 23 39 27 56 6 10 -12 19 -10 56 15 23 16 52 29 64 29 15 0
21 6 21 20 0 29 26 76 45 84 9 3 25 1 35 -4 26 -14 30 -13 30 10 0 28 21 70
35 70 7 0 15 -10 19 -22z m2546 -20 c0 -12 5 -37 12 -55 9 -26 9 -36 0 -45
-10 -10 -15 -10 -22 2 -13 21 -13 133 0 125 6 -3 10 -16 10 -27z m-620 -44 c0
-39 18 -64 45 -64 29 0 32 -18 9 -62 l-16 -30 -39 38 c-21 21 -39 44 -39 51 0
7 -4 13 -9 13 -12 0 -21 55 -15 90 l6 30 29 -21 c19 -13 29 -29 29 -45z
m-2280 2 c17 -21 9 -61 -13 -60 -9 1 -17 -4 -17 -12 0 -8 -4 -14 -10 -14 -14
0 -12 74 2 88 16 16 23 15 38 -2z m653 -63 c-5 -12 -2 -15 10 -10 13 5 17 1
17 -18 0 -31 -7 -31 -37 -3 -25 24 -30 44 -10 51 18 7 27 -2 20 -20z m791 -43
c39 -22 81 -48 93 -59 l22 -18 -20 -67 c-11 -37 -26 -69 -34 -72 -7 -3 -16
-16 -19 -29 -7 -29 -55 -42 -85 -23 -29 18 -27 28 19 73 45 44 51 78 23 122
-16 24 -20 25 -80 19 -63 -7 -63 -6 -63 19 0 24 42 74 64 75 5 0 41 -18 80
-40z m-350 -35 c33 -14 37 -19 34 -47 -4 -37 -28 -51 -28 -17 0 22 0 22 -14 3
-15 -20 -3 -49 16 -38 5 3 12 -4 15 -15 4 -16 11 -20 24 -16 34 11 23 -33 -13
-55 -35 -21 -68 -26 -68 -10 0 6 -7 10 -15 10 -18 0 -20 21 -3 38 9 9 9 12 1
12 -7 0 -21 -14 -34 -31 -16 -22 -24 -28 -33 -19 -8 8 -6 19 7 41 9 17 17 36
17 44 0 7 7 18 15 25 9 7 15 20 13 29 -2 14 18 61 26 61 2 0 20 -7 40 -15z
m96 5 c0 -5 -4 -10 -10 -10 -5 0 -10 5 -10 10 0 6 5 10 10 10 6 0 10 -4 10
-10z m-180 -20 c0 -5 -7 -10 -15 -10 -8 0 -15 5 -15 10 0 6 7 10 15 10 8 0 15
-4 15 -10z m1254 -41 c39 -43 55 -69 43 -69 -1 0 -33 -9 -71 -20 -94 -27 -102
-19 -70 68 13 37 24 68 24 69 0 2 6 3 14 3 8 0 35 -23 60 -51z m440 18 c18
-24 21 -41 19 -115 -1 -48 -2 -115 -2 -148 0 -61 0 -61 -32 -68 -18 -3 -35 -4
-38 0 -3 3 5 24 17 47 l23 42 -25 -28 c-14 -15 -26 -35 -26 -43 0 -8 -7 -14
-15 -14 -22 0 -19 20 16 97 34 77 24 75 -16 -4 -14 -29 -28 -53 -30 -53 -2 0
-9 9 -16 21 -9 17 -6 32 16 81 15 33 25 62 22 64 -3 3 -16 -20 -30 -50 -14
-31 -30 -56 -36 -56 -19 0 -22 20 -6 49 8 17 15 38 15 48 0 10 -9 -1 -20 -25
-21 -47 -46 -49 -35 -3 6 24 5 24 -7 8 -13 -17 -16 -17 -58 7 -25 14 -53 26
-62 26 -47 0 -14 48 52 76 35 15 112 23 139 14 9 -3 16 3 19 15 7 34 24 46 60
43 25 -2 41 -11 56 -31z m-2778 -24 c-3 -21 -6 -58 -7 -83 -1 -37 -2 -41 -9
-20 -10 31 -12 103 -4 124 12 32 27 16 20 -21z m1064 -9 c0 -8 -4 -12 -10 -9
-5 3 -10 13 -10 21 0 8 5 12 10 9 6 -3 10 -13 10 -21z m183 7 c2 -10 1 -25 -4
-32 -5 -8 -9 -9 -9 -4 0 6 -3 20 -6 33 -4 12 -2 22 4 22 5 0 12 -9 15 -19z
m-307 -75 c36 -36 40 -49 24 -92 l-11 -27 -25 24 c-20 19 -23 29 -18 54 l6 30
-21 -20 c-27 -23 -51 -12 -62 28 -9 32 -4 37 39 37 25 0 43 -9 68 -34z m887
27 c4 -3 -1 -12 -11 -19 -16 -12 -16 -13 3 -14 17 0 17 -2 5 -10 -12 -8 -12
-12 -2 -18 9 -7 8 -21 -8 -67 -11 -32 -18 -66 -15 -75 7 -21 -23 -49 -56 -52
-31 -4 -33 23 -2 37 28 12 41 67 25 107 -21 56 28 145 61 111z m182 -72 l60
-18 -33 -7 c-21 -5 -36 -16 -42 -31 -5 -12 -29 -39 -54 -60 -38 -31 -49 -35
-61 -25 -16 14 -16 20 17 108 22 59 25 60 113 33z m-903 -26 c0 -14 -29 -31
-38 -22 -9 8 16 39 28 35 5 -2 10 -8 10 -13z m256 -44 c88 -74 156 -161 124
-161 -4 0 -13 5 -20 12 -9 9 -12 9 -12 -1 0 -10 -23 -11 -102 -8 -124 7 -144
10 -183 31 -16 9 -35 16 -41 16 -11 0 -24 22 -24 40 0 5 17 6 38 3 32 -6 35
-4 24 9 -21 26 1 64 45 78 21 7 42 16 48 21 19 18 45 8 103 -40z m942 -46 c0
-8 7 -15 15 -15 9 0 15 10 15 26 0 33 24 27 28 -7 7 -70 6 -82 -10 -92 -23
-15 -58 16 -51 46 4 20 3 21 -10 5 -21 -26 -37 -22 -37 10 0 15 -3 38 -7 50
-6 24 -6 24 26 8 17 -9 31 -23 31 -31z m-1932 19 c24 -17 21 -36 -6 -32 -33 6
-24 -29 13 -46 19 -9 35 -19 35 -22 0 -5 -147 5 -169 12 -23 8 1 24 44 29 38
5 59 21 49 37 -3 4 -12 8 -20 8 -15 0 -19 12 -7 23 11 12 37 8 61 -9z m770 -6
c-7 -20 -48 -23 -48 -4 0 11 9 16 26 16 16 0 24 -5 22 -12z m1357 0 c16 -7 28
-23 32 -39 4 -24 11 -28 42 -31 42 -3 44 -20 4 -23 -16 -1 -50 -5 -76 -9 l-48
-8 6 28 6 29 -25 -28 c-25 -27 -25 -27 -36 -6 -8 15 -8 24 0 34 14 17 4 38
-13 28 -7 -4 -6 0 2 10 19 23 41 21 41 -4 0 -11 5 -17 10 -14 6 4 8 11 5 16
-7 11 2 29 15 29 5 0 21 -5 35 -12z m-2515 -38 c0 -5 -2 -10 -4 -10 -3 0 -8 5
-11 10 -3 6 -1 10 4 10 6 0 11 -4 11 -10z m2185 -10 c21 -23 70 -50 94 -51 9
0 3 -5 -14 -10 -44 -13 -71 -4 -94 35 -12 18 -21 36 -21 40 0 12 17 6 35 -14z
m-1959 -19 c-4 -6 -14 -11 -22 -11 -12 0 -13 4 -3 21 7 14 14 18 21 11 6 -6 7
-15 4 -21z m818 8 c26 -21 34 -53 16 -64 -14 -8 -70 23 -70 39 0 21 11 46 20
46 4 0 19 -9 34 -21z m1086 -19 c0 -22 -4 -40 -10 -40 -5 0 -10 18 -10 40 0
22 5 40 10 40 6 0 10 -18 10 -40z m-115 -30 c3 -5 1 -10 -4 -10 -6 0 -11 5
-11 10 0 6 2 10 4 10 3 0 8 -4 11 -10z m-952 -105 c4 -8 1 -17 -4 -21 -6 -3
-8 -19 -5 -35 4 -21 2 -29 -9 -29 -9 0 -12 6 -9 15 4 8 1 15 -5 15 -7 0 -11
14 -9 35 1 25 7 35 19 35 9 0 19 -7 22 -15z m787 5 c0 -5 -4 -10 -10 -10 -5 0
-10 5 -10 10 0 6 5 10 10 10 6 0 10 -4 10 -10z m90 -9 c-15 -29 -30 -35 -30
-13 0 22 8 32 27 32 10 0 11 -5 3 -19z m-127 -11 c3 -11 1 -18 -4 -14 -5 3 -9
12 -9 20 0 20 7 17 13 -6z m-123 -5 c38 -20 49 -41 60 -122 5 -38 12 -80 16
-95 4 -18 2 -28 -5 -28 -17 0 -61 104 -74 173 -10 56 -27 78 -27 36 0 -34 30
-140 51 -182 11 -21 19 -40 17 -42 -2 -1 -13 -7 -25 -14 -20 -10 -23 -8 -34
26 -23 71 -101 194 -114 181 -4 -4 2 -20 14 -36 26 -37 91 -172 91 -189 0 -26
-26 -11 -52 30 -16 23 -41 60 -58 82 -33 45 -37 82 -15 125 33 64 95 86 155
55z m-315 -35 c15 -17 14 -20 -9 -43 -14 -15 -26 -32 -26 -39 0 -16 -58 -50
-72 -42 -5 4 -2 14 7 24 9 10 14 24 10 30 -4 6 -1 17 5 25 6 8 9 19 5 25 -9
15 1 12 20 -6 9 -9 19 -13 23 -10 3 4 2 10 -4 14 -6 4 -13 14 -16 23 -9 23 36
22 57 -1z m-355 -22 c0 -5 -4 -8 -10 -8 -5 0 -10 10 -10 23 0 18 2 19 10 7 5
-8 10 -18 10 -22z m1029 -113 l1 -30 -31 32 c-26 25 -29 34 -20 49 10 18 10
17 11 -4 0 -14 4 -21 11 -16 6 3 8 17 5 31 -4 13 -3 29 1 36 8 13 21 -46 22
-98z m-204 65 c43 -21 101 -75 107 -100 2 -11 -6 -13 -37 -11 -22 2 -43 8 -47
14 -6 9 -8 8 -8 -1 0 -29 -25 -3 -37 39 l-12 44 2 -52 c1 -29 -2 -54 -8 -55
-11 -3 -29 45 -40 106 -7 33 -5 36 16 36 12 0 41 -9 64 -20z m-410 -100 c8 0
15 12 17 28 4 22 6 24 12 10 16 -35 -1 -51 -46 -44 -55 9 -60 13 -47 38 12 21
12 21 31 -5 11 -15 26 -27 33 -27z m-360 -80 c36 -60 70 -110 74 -110 4 0 20
14 37 31 58 61 138 85 180 55 23 -17 24 -16 -56 -56 -36 -18 -79 -43 -96 -55
-29 -22 -34 -23 -70 -11 -36 13 -44 23 -96 122 -32 60 -58 115 -58 122 0 31
24 3 85 -98z m-115 63 c0 -21 -3 -24 -9 -14 -5 8 -7 20 -4 28 8 21 13 15 13
-14z m610 -15 c51 -70 54 -135 4 -70 -14 18 -35 37 -47 43 -16 9 -13 3 11 -27
18 -21 32 -47 32 -56 0 -22 -4 -22 -38 -1 l-27 17 19 -22 c19 -22 19 -22 -28
-69 l-46 -48 0 57 c0 81 51 218 81 218 5 0 23 -19 39 -42z m-470 4 c0 -15 -2
-15 -10 -2 -13 20 -13 33 0 25 6 -3 10 -14 10 -23z m108 -33 c-2 -12 -17 -32
-34 -45 l-31 -24 -12 27 c-10 23 -10 26 0 16 21 -21 36 -15 49 17 14 35 33 40
28 9z m655 -15 c3 -3 -3 -23 -14 -42 -15 -29 -18 -48 -13 -87 l6 -50 -28 38
c-32 43 -44 47 -44 12 0 -18 -5 -25 -20 -25 -11 0 -25 -12 -33 -26 -8 -15 -16
-23 -19 -18 -9 16 17 99 30 97 7 -2 12 4 12 12 0 8 -6 15 -14 15 -19 0 -46
-78 -55 -157 l-6 -68 -15 48 c-9 28 -21 47 -30 48 -8 1 -22 2 -30 3 -27 2 -22
33 10 60 23 19 38 24 56 20 15 -4 24 -2 24 6 0 6 9 25 20 41 18 25 24 27 48
18 20 -8 28 -7 31 2 12 36 67 70 84 53z m43 -35 c3 -6 15 -8 26 -6 17 5 18 2
12 -26 -10 -46 -35 -95 -52 -102 -19 -7 -22 -4 -32 40 -6 28 -4 46 8 71 18 35
27 41 38 23z m-866 -51 c25 -16 26 -28 2 -28 -11 0 -22 12 -30 33 -14 38 -15
63 -2 30 5 -12 18 -28 30 -35z m975 13 c0 -22 -12 -41 -42 -72 -30 -30 -43
-37 -43 -25 0 9 7 19 15 22 8 4 15 17 15 31 0 19 38 73 52 73 2 0 3 -13 3 -29z
m-1035 -47 c0 -8 -4 -12 -10 -9 -5 3 -10 10 -10 16 0 5 5 9 10 9 6 0 10 -7 10
-16z m23 -53 c2 -10 -5 -34 -17 -52 l-21 -34 -3 34 c-4 35 15 84 28 76 4 -3
10 -13 13 -24z m337 9 c0 -15 -54 -44 -58 -32 -2 7 -12 12 -22 12 -20 0 -34
15 -27 28 7 9 107 2 107 -8z m677 -5 c-13 -27 -37 -34 -37 -10 0 9 10 20 23
25 12 5 23 9 24 9 0 1 -4 -10 -10 -24z m44 -39 c-10 -12 -51 -29 -51 -21 0 19
17 35 37 35 21 0 23 -3 14 -14z m-448 -16 c2 -3 7 -17 11 -32 5 -23 3 -25 -14
-21 -11 3 -20 11 -20 18 0 7 -9 19 -21 26 -20 13 -19 14 10 14 16 0 31 -2 34
-5z m-415 -37 c17 -13 32 -33 32 -43 0 -12 5 -17 14 -14 13 5 22 -6 64 -71 26
-41 52 -101 52 -120 0 -18 -50 -85 -63 -85 -3 0 -18 -11 -33 -25 -15 -14 -34
-23 -42 -20 -8 3 -20 -2 -27 -12 -9 -12 -28 -17 -64 -17 -47 -1 -56 2 -83 32
-16 19 -27 40 -24 47 3 9 0 12 -8 9 -16 -6 -29 23 -51 114 -20 81 -16 101 37
173 23 31 32 38 42 30 10 -9 15 -7 19 8 9 37 81 34 135 -6z m207 17 c3 -10 1
-36 -4 -57 -6 -21 -11 -50 -11 -65 0 -16 -4 -28 -9 -28 -8 0 -71 102 -71 115
0 6 72 54 82 54 4 1 9 -8 13 -19z m582 -42 c66 -40 127 -224 90 -272 -14 -19
-14 -19 -35 2 -12 12 -27 22 -33 22 -7 0 -10 15 -7 41 3 36 -1 46 -29 74 -31
31 -33 32 -49 14 -25 -28 -39 -23 -53 19 -9 27 -10 45 -2 64 6 15 8 34 5 42
-4 9 3 16 18 19 31 5 56 -1 95 -25z m-462 -8 c3 -5 17 -10 30 -10 14 0 29 -9
35 -21 13 -23 14 -22 -19 -39 -25 -13 -40 -2 -41 28 0 6 -9 21 -20 32 -15 15
-16 20 -6 20 8 0 18 -4 21 -10z m312 -41 l1 -51 -19 28 c-27 41 -24 74 6 74 7
0 12 -19 12 -51z m-187 6 c0 -8 -7 -15 -15 -15 -8 0 -15 7 -15 15 0 8 7 15 15
15 8 0 15 -7 15 -15z m115 -24 c-4 -14 -1 -18 11 -17 20 1 51 -39 59 -80 5
-28 3 -33 -24 -42 -16 -6 -32 -8 -35 -5 -3 3 -3 -9 -1 -28 2 -18 0 -50 -4 -71
-5 -21 -6 -38 -2 -38 3 0 19 -10 34 -23 27 -22 28 -23 12 -54 -15 -31 -46 -50
-72 -45 -7 2 -13 -4 -13 -13 0 -24 -15 -10 -40 37 -33 65 -43 177 -20 249 23
70 36 97 63 127 25 27 40 29 32 3z m-243 -41 c0 -11 1 -24 2 -30 1 -5 -2 -10
-6 -10 -5 0 -7 2 -5 3 1 2 -4 11 -11 20 -8 9 -11 21 -7 27 10 17 25 11 27 -10z
m98 0 c0 -6 -11 -21 -25 -34 -32 -29 -31 -36 1 -36 15 0 23 -4 19 -11 -4 -6
-14 -7 -24 -3 -9 4 -26 6 -38 5 -30 -1 -29 11 2 40 13 13 25 30 25 37 0 6 9
12 20 12 11 0 20 -5 20 -10z m-665 -196 c6 -33 3 -44 -19 -69 -20 -23 -26 -26
-26 -12 0 10 7 20 15 23 17 7 20 30 6 36 -6 2 -7 22 -4 47 7 49 18 39 28 -25z
m580 46 c10 -11 26 -20 36 -20 10 0 21 -5 25 -11 4 -8 0 -9 -15 -4 -25 8 -25
6 -6 -31 8 -16 15 -35 15 -42 0 -17 -21 -11 -30 9 -42 86 -49 94 -82 92 -31
-3 -32 -2 -14 12 27 20 49 19 71 -5z m-16 -95 c13 -19 27 -35 32 -35 5 0 9 -7
9 -16 0 -24 -21 -11 -41 25 -10 19 -32 42 -48 52 -38 23 -40 31 -3 18 15 -5
38 -25 51 -44z m-165 -55 c0 -49 0 -90 -1 -90 -1 0 -8 -3 -16 -6 -15 -5 -77
77 -77 103 0 15 80 96 88 89 2 -3 5 -46 6 -96z m746 74 c0 -16 -16 -19 -25 -4
-8 13 4 32 16 25 5 -4 9 -13 9 -21z m-13 -61 c19 -46 12 -103 -18 -169 -19
-39 -31 -51 -75 -71 -35 -16 -61 -22 -78 -17 -29 7 -46 26 -29 31 6 2 8 21 6
46 -4 31 0 52 14 75 l20 32 23 -25 23 -25 35 34 c33 34 36 56 6 56 -15 0 -17
12 -8 48 5 16 14 22 36 22 24 0 32 -6 45 -37z m-557 -45 c28 -20 29 -23 13
-40 -9 -10 -22 -18 -28 -18 -17 0 -63 39 -47 40 6 0 12 9 12 20 0 26 14 25 50
-2z m78 5 c6 -19 -25 -16 -32 3 -4 11 -1 14 11 12 9 -2 18 -9 21 -15z m-613
-6 c23 -17 12 -37 -17 -30 -14 4 -26 0 -34 -12 -14 -18 -14 -18 -14 0 0 18 27
55 40 55 3 0 14 -6 25 -13z m131 -32 c6 -2 30 -39 54 -82 23 -43 56 -96 74
-118 18 -22 37 -49 43 -59 15 -28 4 -56 -21 -56 -36 0 -92 69 -142 175 -26 55
-48 102 -50 104 -2 2 -37 -27 -78 -64 -48 -43 -81 -65 -91 -61 -30 11 -14 42
57 108 75 69 88 73 154 53z m729 -7 c-8 -28 -32 -48 -57 -48 -10 0 -18 -7 -18
-17 0 -16 -1 -16 -17 0 -16 16 -15 19 17 52 40 42 86 49 75 13z m-235 -8 c0
-5 -9 -10 -19 -10 -11 0 -23 5 -26 10 -4 6 5 10 19 10 14 0 26 -4 26 -10z
m-367 -49 c12 -25 29 -56 38 -69 16 -22 15 -72 -2 -72 -10 0 -11 3 -13 41 -3
37 -33 79 -56 79 -13 0 -24 10 -30 26 -14 36 -13 39 16 40 22 2 29 -6 47 -45z
m392 -17 c17 -26 17 -27 -18 -62 -29 -29 -39 -33 -50 -24 -8 7 -22 10 -30 6
-12 -4 -18 2 -23 21 -4 15 -16 30 -28 35 -20 7 -20 8 7 20 15 7 27 17 27 22 0
4 22 8 49 8 42 0 51 -4 66 -26z m228 14 c-6 -7 -13 -25 -17 -40 -4 -19 -13
-28 -26 -28 -35 0 -35 23 0 52 35 29 60 38 43 16z m-766 -108 c37 -69 45 -118
24 -144 -29 -35 -41 -19 -41 53 0 70 -14 101 -44 101 -24 0 -34 -19 -51 -94
-10 -47 -23 -12 -15 41 5 33 16 54 41 79 19 18 38 32 42 31 5 -2 24 -32 44
-67z m293 28 c0 -7 11 -35 25 -63 l26 -49 -23 -19 c-20 -17 -21 -18 -3 -12 11
4 26 9 33 12 26 11 10 -33 -25 -70 -42 -44 -14 -35 30 9 20 20 31 24 39 16 8
-8 4 -21 -17 -49 -37 -50 -77 -93 -86 -93 -27 0 -45 203 -26 293 7 34 27 53
27 25z m290 6 c0 -3 -5 -14 -11 -26 -16 -30 0 -36 23 -8 l20 25 -6 -25 c-18
-77 -19 -100 -2 -100 9 0 16 5 16 10 0 18 18 11 25 -10 5 -15 15 -20 41 -20
38 0 38 -15 1 -29 -58 -22 -67 -23 -67 -7 0 18 -16 21 -26 5 -25 -41 82 -33
148 11 57 39 63 38 35 -7 -22 -37 -25 -73 -6 -73 5 0 9 -11 9 -25 0 -19 -5
-25 -20 -25 -34 0 -78 28 -82 52 -3 20 -8 22 -45 20 -45 -4 -63 13 -63 59 0
17 -4 20 -21 16 -27 -7 -59 8 -82 39 -18 24 -18 26 -1 45 9 10 25 19 34 19 9
0 26 14 38 30 20 27 42 40 42 24z m360 -95 c0 -6 -4 -7 -10 -4 -5 3 -10 11
-10 16 0 6 5 7 10 4 6 -3 10 -11 10 -16z m-16 -29 c38 -14 34 -41 -5 -36 -31
3 -52 23 -43 38 7 10 17 10 48 -2z m-76 -24 c3 -12 -1 -17 -10 -14 -7 3 -15
13 -16 22 -3 12 1 17 10 14 7 -3 15 -13 16 -22z m42 -41 c8 -9 10 -25 5 -42
-4 -16 -7 -38 -8 -50 -2 -27 -21 -25 -24 3 -1 10 -5 31 -9 46 -11 49 10 74 36
43z m-73 -47 c-9 -6 -9 -12 0 -27 10 -15 9 -22 -2 -31 -12 -10 -15 -9 -15 8 0
11 -7 25 -15 32 -13 11 -13 16 1 43 l16 31 13 -25 c10 -18 10 -26 2 -31z
m-384 8 c6 -16 -47 -110 -99 -173 -20 -24 -31 -43 -26 -43 15 0 90 88 120 140
14 25 27 47 28 49 2 1 13 -7 26 -18 19 -18 20 -24 10 -39 -22 -31 -82 -156
-82 -172 0 -8 19 19 41 60 46 85 66 110 87 110 16 0 16 0 -18 -94 -12 -32 -19
-63 -17 -69 2 -6 13 17 26 51 26 69 57 105 67 79 3 -8 1 -24 -5 -36 -6 -11
-11 -30 -10 -43 0 -17 5 -11 16 20 14 40 35 54 48 32 4 -6 10 -8 13 -6 8 5
112 -20 120 -29 10 -10 -43 -56 -92 -80 -64 -30 -126 -41 -165 -27 -28 10 -31
9 -37 -13 -8 -34 -34 -53 -79 -60 -85 -13 -147 52 -149 154 l-1 57 80 80 c44
45 83 82 86 83 4 0 9 -5 12 -13z m-239 -36 c18 -7 26 -17 26 -34 0 -14 -4 -27
-9 -31 -5 -3 -17 -27 -27 -53 -23 -60 -44 -84 -44 -50 0 13 -3 33 -6 45 l-6
23 -21 -26 c-11 -14 -16 -29 -11 -32 5 -4 10 -22 11 -41 2 -32 1 -33 -16 -17
-24 22 -31 20 -31 -6 -1 -18 -6 -13 -25 22 -19 36 -25 41 -30 28 -4 -10 -14
-18 -21 -18 -8 0 -19 -11 -24 -25 -5 -14 -14 -25 -19 -25 -5 0 -13 -10 -16
-21 -6 -19 -9 -20 -22 -6 -10 9 -13 23 -9 33 5 13 9 15 14 7 4 -7 8 28 8 77 0
74 3 93 18 108 17 16 18 16 11 -5 -4 -15 -2 -23 5 -23 6 0 8 -5 5 -10 -4 -6
-11 -8 -16 -5 -5 4 -9 -6 -9 -20 0 -25 1 -25 22 -11 16 11 25 13 35 4 10 -8
13 -7 13 5 0 8 -6 17 -12 20 -9 3 -5 11 10 22 22 16 22 18 7 35 -15 16 -14 18
7 23 12 4 27 2 34 -4 8 -6 13 -5 18 6 6 18 89 21 130 5z m-361 -63 c-6 -30 -5
-31 13 -17 10 8 23 20 27 25 4 6 5 -17 1 -50 -7 -67 -11 -76 -24 -55 -7 11
-10 8 -10 -12 0 -16 5 -28 10 -28 6 0 10 -11 10 -25 0 -15 -6 -25 -14 -25 -19
0 -37 24 -34 46 2 11 -1 50 -6 87 -5 49 -4 72 4 82 19 22 30 8 23 -28z m1142
-74 c-9 -85 -16 -113 -25 -113 -12 0 -83 48 -91 62 -8 13 1 48 12 48 5 0 30
13 57 30 26 16 48 30 50 30 2 0 1 -26 -3 -57z m-968 -85 c-3 -8 -6 -5 -6 6 -1
11 2 17 5 13 3 -3 4 -12 1 -19z m879 -78 c24 -17 44 -38 44 -46 0 -8 4 -13 9
-10 5 4 7 -3 4 -14 -3 -12 0 -20 7 -20 6 0 10 -10 8 -22 -5 -36 -40 -29 -59
11 -21 44 -48 65 -65 50 -7 -6 -18 -8 -24 -4 -12 8 -13 35 -1 35 5 0 12 11 15
25 4 14 9 25 12 25 3 0 25 -14 50 -30z m-1066 -26 c12 -32 4 -47 -21 -39 -11
4 -19 2 -19 -4 0 -6 -4 -11 -10 -11 -13 0 -13 21 0 54 12 33 38 33 50 0z m780
-18 c41 -96 60 -190 60 -292 0 -54 -3 -109 -6 -121 -6 -24 -90 -73 -123 -73
-23 0 -54 28 -46 41 11 16 -7 9 -21 -8 -20 -26 -17 -42 6 -36 22 6 26 -7 8
-25 -15 -15 -28 -15 -28 0 0 6 -8 20 -17 30 -17 19 -17 21 0 50 9 16 17 35 17
43 0 7 7 18 16 26 8 7 13 21 11 30 -3 10 5 29 17 42 l22 24 -48 19 c-42 16
-45 19 -27 26 20 8 20 9 5 33 -9 14 -12 25 -6 25 5 0 10 7 10 15 0 18 12 19
28 3 17 -17 26 15 12 42 -9 16 -15 19 -23 11 -17 -17 -27 -13 -24 11 1 12 19
37 39 56 20 18 40 42 43 53 4 12 15 19 31 19 20 0 29 -9 44 -44z m194 -30 c39
-29 94 -68 123 -85 39 -24 53 -39 59 -64 4 -18 15 -48 25 -67 12 -21 19 -56
20 -90 0 -36 3 -48 8 -36 4 11 10 15 13 10 10 -18 9 -112 -1 -119 -7 -4 -11 5
-11 22 0 34 -19 70 -20 38 -3 -88 -19 -218 -28 -227 -6 -6 -18 -8 -26 -5 -21
8 -21 95 -1 232 8 55 14 116 14 135 0 39 -6 45 -149 133 -85 53 -108 80 -126
151 -10 41 20 33 100 -28z m-837 -33 c16 -39 17 -79 2 -89 -18 -10 -32 13 -31
49 1 26 -3 34 -14 33 -9 0 -21 7 -28 17 -9 15 -7 21 8 32 24 18 43 5 63 -42z
m149 -150 c0 -12 5 -17 16 -15 12 2 15 -3 11 -19 -6 -21 -6 -21 -31 4 -13 14
-21 30 -18 36 11 17 24 13 22 -6z m759 -23 c74 -42 77 -47 66 -116 -15 -92
-32 -132 -62 -143 -32 -11 -59 3 -59 30 0 11 7 22 15 26 21 8 45 56 45 90 -1
57 -42 79 -88 47 -47 -32 -66 31 -24 79 21 24 47 21 107 -13z m-405 -70 c0 -5
-7 -10 -15 -10 -8 0 -15 5 -15 10 0 6 7 10 15 10 8 0 15 -4 15 -10z m-20 -56
c0 -8 -4 -12 -10 -9 -5 3 -10 13 -10 21 0 8 5 12 10 9 6 -3 10 -13 10 -21z
m-143 -54 c41 -24 56 -54 48 -91 -8 -33 -25 -37 -49 -10 -12 13 -15 27 -10 46
l7 27 -27 -17 c-20 -13 -29 -15 -40 -6 -15 12 -27 57 -18 66 12 11 59 4 89
-15z m416 -89 c64 -44 123 -108 168 -183 40 -66 41 -69 25 -93 -9 -14 -21 -23
-27 -20 -5 4 -26 1 -47 -6 -33 -11 -86 -18 -132 -18 -8 0 -27 0 -42 0 -33 0
-34 6 -8 39 26 33 26 48 0 25 -28 -25 -38 -11 -17 24 24 40 22 44 -18 39 -19
-2 -35 0 -35 5 0 14 -24 33 -55 44 -18 6 -31 18 -33 30 -3 17 2 19 30 15 25
-3 30 -1 22 7 -20 21 -4 59 31 75 18 9 37 16 43 16 5 0 15 7 22 15 17 21 25
19 73 -14z m326 -60 c-7 -18 -15 -29 -20 -24 -5 5 -4 23 3 41 16 41 32 26 17
-17z m-519 -6 c0 -9 -9 -15 -25 -15 -24 0 -32 10 -18 23 12 13 43 7 43 -8z
m-112 -61 c33 -23 30 -75 -9 -119 -46 -52 -80 -41 -65 20 5 18 13 25 31 25 30
0 31 7 5 28 -14 12 -18 24 -14 40 7 26 21 28 52 6z m643 -66 c-9 -35 -19 -64
-22 -66 -3 -1 -4 -13 -2 -27 4 -20 0 -24 -23 -27 l-29 -4 27 -12 c19 -8 26
-16 21 -28 -4 -12 -17 -15 -55 -12 -41 2 -46 1 -31 -9 9 -7 32 -13 50 -13 21
0 33 -5 33 -14 0 -24 -24 -35 -95 -42 l-70 -8 42 -8 c26 -6 57 -5 78 1 l36 10
-3 -37 c-2 -28 -8 -37 -23 -40 -54 -7 -127 -27 -132 -35 -4 -6 1 -8 10 -4 10
4 46 9 82 13 61 6 65 6 65 -14 0 -14 -8 -22 -28 -26 -25 -6 -96 -46 -81 -46 4
0 26 7 49 15 23 8 46 15 51 15 18 0 9 -39 -10 -45 -11 -3 -25 -13 -33 -22 -12
-15 -11 -15 10 -4 33 18 56 7 42 -19 -6 -11 -7 -20 -2 -20 11 0 34 -122 24
-132 -28 -28 -179 156 -157 192 3 5 -13 8 -37 7 -37 -2 -44 2 -65 32 -49 71
-36 153 33 226 29 29 42 36 67 33 26 -3 32 1 38 24 11 42 129 208 149 208 4 0
1 -28 -9 -62z m-508 6 c-4 -10 -9 -12 -15 -6 -12 12 -1 35 12 27 5 -3 6 -13 3
-21z m-141 -255 c21 -11 21 -12 2 -26 -16 -12 -17 -15 -4 -23 18 -11 12 -17
-20 -22 -18 -2 -24 1 -22 12 2 8 5 26 7 40 2 14 4 26 4 28 2 5 13 2 33 -9z
m-72 -308 c0 -53 -18 -77 -60 -83 -27 -3 -30 0 -30 36 0 18 7 26 27 31 l28 7
-23 17 c-22 16 -22 18 -6 56 l16 40 24 -28 c18 -21 24 -40 24 -76z m377 49 c6
0 13 6 16 13 3 8 12 5 30 -11 17 -16 38 -24 61 -24 40 0 61 -23 49 -55 -13
-35 -106 -163 -144 -198 -22 -20 -73 -52 -114 -72 l-75 -37 -32 18 c-55 32
-177 120 -177 129 -1 4 15 7 34 5 45 -3 55 8 16 17 -53 11 -28 47 27 39 29 -5
34 -2 43 25 6 17 17 31 25 31 19 0 18 -14 -2 -31 -14 -12 -13 -14 7 -21 32
-12 45 5 30 38 -15 33 -12 35 25 25 24 -6 29 -12 26 -34 -2 -19 2 -27 13 -27
19 0 19 23 -1 89 -17 58 -12 77 12 43 21 -31 32 -27 36 11 2 26 7 32 26 30 15
-2 22 3 22 14 0 15 1 15 18 0 10 -10 23 -17 29 -17z m-257 -95 c0 -8 -4 -15
-10 -15 -5 0 -10 7 -10 15 0 8 5 15 10 15 6 0 10 -7 10 -15z m464 -302 c-1
-208 -1 -208 -30 -268 -16 -33 -30 -62 -31 -64 -1 -2 -38 -14 -80 -27 -43 -12
-132 -39 -198 -60 -164 -50 -165 -51 -165 -26 0 11 15 36 33 55 32 34 56 43
370 139 20 6 37 16 37 22 0 6 -5 72 -10 146 -6 74 -8 152 -5 172 7 39 61 132
73 124 4 -2 7 -98 6 -213z m-766 161 c51 -14 8 -84 -53 -84 -54 0 -87 19 -83
49 4 36 45 41 70 9 17 -22 18 -22 18 -2 0 33 9 38 48 28z m951 -65 c18 -29 29
-59 26 -68 -6 -20 -63 -77 -69 -70 -8 8 -16 158 -9 174 9 24 18 18 52 -36z
m-788 -12 c-7 -7 -15 -6 -25 2 -18 15 -33 -4 -17 -23 6 -7 9 -15 6 -18 -3 -3
1 -11 10 -18 13 -11 14 -10 9 4 -5 12 0 19 15 23 11 3 21 10 21 15 0 15 23 4
80 -39 45 -34 50 -41 50 -76 0 -98 -56 -233 -133 -320 -48 -54 -77 -56 -103
-5 -9 17 -39 52 -68 79 -34 32 -52 56 -51 71 0 31 14 50 31 44 25 -9 24 11 -1
22 -46 21 -29 34 32 26 l58 -7 -27 35 c-32 41 -28 50 12 35 23 -9 33 -8 42 1
19 19 -4 37 -30 23 -15 -8 -23 -8 -28 0 -6 11 15 34 39 42 7 2 7 13 0 33 -9
26 -7 32 21 61 29 29 32 30 49 15 11 -10 14 -19 8 -25z m683 -16 c9 -56 7
-109 -5 -116 -6 -4 -8 -13 -5 -21 3 -7 0 -16 -6 -20 -7 -4 -6 -9 3 -15 11 -8
9 -14 -11 -30 l-25 -21 -9 37 c-6 28 -5 46 8 72 20 42 21 81 1 103 -20 22 -10
48 19 48 20 0 25 -7 30 -37z m-1105 -31 c24 -12 17 -60 -9 -60 -28 0 -43 25
-30 49 12 24 15 25 39 11z m-149 -18 c0 -24 -28 -62 -46 -62 -20 0 -38 50 -24
64 8 8 13 7 19 -2 7 -11 9 -10 14 2 9 22 37 20 37 -2z m480 4 c0 -3 -4 -8 -10
-11 -5 -3 -10 -1 -10 4 0 6 5 11 10 11 6 0 10 -2 10 -4z m540 -11 c24 -13 30
-23 35 -67 4 -29 5 -75 3 -103 l-3 -49 -85 -28 c-104 -33 -137 -35 -167 -6
-26 25 -31 75 -8 84 10 4 13 13 10 25 -9 27 1 24 33 -11 21 -24 38 -32 77 -36
55 -7 78 7 90 56 8 32 -40 85 -85 93 -16 4 -30 12 -30 18 0 6 6 9 13 6 7 -3
19 4 25 14 15 23 52 25 92 4z m-580 -25 c0 -5 -7 -10 -15 -10 -8 0 -15 5 -15
10 0 6 7 10 15 10 8 0 15 -4 15 -10z m-507 -126 c-3 -9 0 -20 8 -25 10 -6 10
-9 2 -9 -18 0 -16 -45 1 -60 12 -9 13 -17 3 -38 -6 -15 -15 -33 -21 -40 -16
-22 -27 10 -16 49 9 31 8 32 -5 15 -23 -31 -28 -12 -16 59 7 36 9 70 6 75 -4
6 -3 15 1 22 10 16 45 -29 37 -48z m47 -4 c0 -5 -4 -10 -10 -10 -5 0 -10 5
-10 10 0 6 5 10 10 10 6 0 10 -4 10 -10z m44 -111 c-20 -22 -12 -38 11 -19 9
7 18 10 22 7 7 -7 -17 -69 -30 -78 -6 -4 -4 -16 5 -28 16 -23 28 -18 28 11 0
23 20 24 21 1 1 -10 1 -22 0 -26 -1 -4 -3 -18 -5 -30 -4 -24 -35 -25 -49 -1
-11 20 -37 5 -37 -21 0 -16 7 -25 25 -29 16 -4 25 -13 25 -26 0 -10 5 -22 10
-25 6 -4 10 7 10 27 1 32 1 32 16 13 20 -27 14 -59 -12 -63 -31 -4 -120 59
-116 83 2 15 1 17 -6 6 -8 -10 -13 -8 -26 10 -11 16 -12 25 -5 30 7 4 12 22
14 40 2 44 95 173 108 151 6 -8 2 -20 -9 -33z m318 -108 c50 -21 65 -36 70
-71 2 -21 9 -26 38 -28 73 -6 217 -66 287 -120 44 -33 33 -45 -31 -36 -28 4
-63 7 -78 6 -25 -1 -28 2 -29 31 l-1 32 -14 -32 c-8 -18 -18 -33 -23 -33 -16
0 -41 42 -41 68 0 13 -4 20 -10 17 -6 -4 -7 -23 -4 -46 6 -35 4 -39 -14 -39
-18 0 -25 13 -44 73 -16 51 -24 65 -26 48 -2 -13 1 -43 7 -67 15 -58 14 -64
-8 -64 -19 0 -75 106 -87 168 -9 46 -24 50 -18 5 6 -46 32 -121 51 -148 18
-27 17 -32 -17 -44 -30 -10 -31 -10 -56 47 -27 62 -84 155 -91 149 -2 -2 17
-46 42 -97 49 -102 52 -115 30 -124 -10 -3 -20 6 -31 27 -22 43 -63 97 -74 97
-5 0 7 -26 26 -57 19 -32 33 -64 32 -72 -5 -27 -23 -21 -42 13 -10 19 -25 37
-33 40 -11 4 -9 -3 6 -28 21 -33 28 -66 14 -66 -4 0 -18 10 -31 23 l-25 22 14
-22 c18 -30 10 -35 -34 -21 -28 8 -37 17 -37 33 0 31 52 127 75 139 11 6 22
12 23 13 2 1 -4 15 -13 31 -23 38 -14 75 30 119 28 28 40 33 78 33 25 0 65 -8
89 -19z m734 -55 c-7 -28 -16 -44 -20 -38 -10 17 -26 15 -20 -3 4 -9 0 -15 -9
-15 -8 0 -17 -7 -21 -15 -3 -8 -16 -15 -29 -15 -13 0 -45 -7 -70 -16 -54 -18
-77 -14 -77 16 0 11 -7 20 -15 20 -19 0 -19 14 -1 29 11 9 20 9 35 2 40 -22
78 -13 109 24 21 26 43 39 78 48 27 7 50 13 51 13 1 -1 -4 -23 -11 -50z m25
-201 c10 -33 19 -68 19 -78 0 -18 -1 -18 -32 0 -18 11 -64 28 -101 39 -69 19
-100 45 -75 61 23 15 123 42 147 40 19 -2 27 -12 42 -62z m-1135 24 c41 -25
43 -36 8 -49 -38 -15 -69 -12 -95 9 l-23 19 34 21 c42 25 36 25 76 0z m614
-83 c0 -7 -7 -19 -15 -26 -8 -7 -15 -9 -15 -4 0 5 -6 -2 -13 -16 -11 -22 -20
-25 -75 -28 -49 -2 -64 0 -68 13 -7 17 -39 20 -49 5 -3 -5 -11 -10 -17 -10 -6
0 -3 9 7 20 21 23 31 24 65 7 30 -16 50 -12 50 9 0 8 15 21 33 29 42 19 97 19
97 1z m65 -32 c17 -9 25 -8 44 7 36 30 43 23 21 -21 -20 -40 -21 -40 -68 -36
-26 2 -55 4 -64 5 -25 1 -23 21 2 21 13 0 20 7 20 18 0 22 11 36 19 25 3 -5
15 -13 26 -19z m171 -6 c-10 -6 -20 -7 -24 -3 -9 8 20 25 31 18 5 -3 2 -10 -7
-15z m56 -30 c-5 -5 -27 -8 -48 -6 -39 4 -36 7 21 25 31 9 45 -1 27 -19z"/>
<path d="M3224 6256 c3 -14 2 -28 -4 -31 -20 -12 -10 -33 15 -31 14 0 25 7 25
14 0 6 4 12 9 12 18 0 5 35 -18 47 -32 18 -34 17 -27 -11z"/>
<path d="M3185 6240 c3 -5 8 -10 11 -10 2 0 4 5 4 10 0 6 -5 10 -11 10 -5 0
-7 -4 -4 -10z"/>
<path d="M3710 6349 c0 -5 5 -7 10 -4 6 3 10 8 10 11 0 2 -4 4 -10 4 -5 0 -10
-5 -10 -11z"/>
<path d="M4650 6359 c0 -11 5 -17 10 -14 6 3 10 13 10 21 0 8 -4 14 -10 14 -5
0 -10 -9 -10 -21z"/>
<path d="M4456 6324 c-9 -24 -2 -26 12 -4 7 11 8 20 3 20 -5 0 -12 -7 -15 -16z"/>
<path d="M4506 6272 c-7 -12 22 -38 31 -28 4 3 0 14 -9 22 -9 10 -18 12 -22 6z"/>
<path d="M4090 6110 c-12 -7 -12 -12 -3 -21 10 -10 14 -9 19 5 8 22 2 27 -16
16z"/>
<path d="M3930 5901 c0 -5 5 -13 10 -16 6 -3 10 -2 10 4 0 5 -4 13 -10 16 -5
3 -10 2 -10 -4z"/>
<path d="M2217 6123 c-12 -11 -8 -23 8 -23 8 0 15 7 15 15 0 16 -12 20 -23 8z"/>
<path d="M2760 6061 c0 -12 6 -21 16 -21 9 0 14 7 12 17 -5 25 -28 28 -28 4z"/>
<path d="M3613 5945 c-7 -8 -9 -23 -5 -40 7 -24 9 -26 21 -11 7 9 24 16 37 16
28 0 31 12 8 31 -22 18 -47 20 -61 4z"/>
<path d="M2985 6040 c-3 -5 -1 -10 4 -10 6 0 11 5 11 10 0 6 -2 10 -4 10 -3 0
-8 -4 -11 -10z"/>
<path d="M3050 5940 c0 -13 20 -13 40 0 12 8 9 10 -12 10 -16 0 -28 -4 -28
-10z"/>
<path d="M4560 5660 c0 -5 5 -10 10 -10 6 0 10 5 10 10 0 6 -4 10 -10 10 -5 0
-10 -4 -10 -10z"/>
<path d="M4520 5540 c0 -5 5 -10 10 -10 6 0 10 5 10 10 0 6 -4 10 -10 10 -5 0
-10 -4 -10 -10z"/>
<path d="M2143 5686 c-1 -23 4 -36 16 -40 9 -3 22 -9 29 -12 7 -3 12 2 12 14
0 11 -9 22 -20 25 -12 3 -20 14 -20 26 0 36 -16 23 -17 -13z"/>
<path d="M2240 5680 c0 -5 5 -10 10 -10 6 0 10 5 10 10 0 6 -4 10 -10 10 -5 0
-10 -4 -10 -10z"/>
<path d="M3540 5630 c0 -5 5 -10 10 -10 6 0 10 5 10 10 0 6 -4 10 -10 10 -5 0
-10 -4 -10 -10z"/>
<path d="M4066 5643 c-11 -11 -6 -23 9 -23 8 0 15 4 15 9 0 13 -16 22 -24 14z"/>
<path d="M2740 5566 c0 -17 -52 -28 -62 -13 -6 9 -8 9 -8 0 0 -6 -3 -18 -6
-27 -5 -12 1 -15 32 -12 31 3 42 10 56 35 15 26 15 31 3 31 -8 0 -15 -6 -15
-14z"/>
<path d="M2530 5479 c7 -11 14 -18 17 -15 8 8 -5 36 -17 36 -7 0 -7 -6 0 -21z"/>
<path d="M2475 5441 c-3 -5 -1 -12 5 -16 5 -3 10 1 10 9 0 18 -6 21 -15 7z"/>
<path d="M4000 5231 c-19 -4 -49 -15 -67 -24 -36 -19 -93 -76 -93 -94 0 -6 -7
-19 -16 -28 -24 -24 -5 -60 36 -69 71 -14 130 4 189 58 55 50 76 146 31 146
-10 0 -22 5 -25 10 -3 6 -9 9 -13 9 -4 -1 -23 -4 -42 -8z"/>
<path d="M4550 5349 c0 -11 5 -17 10 -14 6 3 10 13 10 21 0 8 -4 14 -10 14 -5
0 -10 -9 -10 -21z"/>
<path d="M4518 5298 c-3 -16 -2 -28 3 -28 16 0 39 13 39 22 0 6 -6 8 -14 5 -9
-4 -16 1 -18 11 -3 11 -6 8 -10 -10z"/>
<path d="M4640 5070 c0 -5 4 -10 9 -10 6 0 13 5 16 10 3 6 -1 10 -9 10 -9 0
-16 -4 -16 -10z"/>
<path d="M4580 5021 c0 -6 5 -13 10 -16 6 -3 10 1 10 9 0 9 -4 16 -10 16 -5 0
-10 -4 -10 -9z"/>
<path d="M3577 5404 c-14 -15 -6 -34 14 -34 14 0 19 5 17 17 -3 18 -20 27 -31
17z"/>
<path d="M3132 5240 c-20 -17 -22 -24 -16 -74 7 -61 12 -66 38 -37 14 16 15
19 2 24 -9 4 -12 14 -9 25 2 11 0 23 -7 27 -8 5 -6 11 6 19 9 7 15 18 13 24
-3 6 -13 3 -27 -8z"/>
<path d="M3205 5060 c4 -6 11 -8 16 -5 14 9 11 15 -7 15 -8 0 -12 -5 -9 -10z"/>
<path d="M4260 4849 c0 -5 5 -7 10 -4 6 3 10 8 10 11 0 2 -4 4 -10 4 -5 0 -10
-5 -10 -11z"/>
<path d="M3870 4684 c0 -9 5 -14 12 -12 18 6 21 28 4 28 -9 0 -16 -7 -16 -16z"/>
<path d="M3230 4705 c7 -8 20 -14 29 -14 13 1 13 2 -1 6 -10 2 -18 9 -18 14 0
5 -5 9 -11 9 -8 0 -8 -5 1 -15z"/>
<path d="M3216 4672 c-7 -12 7 -29 31 -36 17 -5 22 -4 18 6 -7 18 -43 40 -49
30z"/>
<path d="M3290 4672 c0 -10 43 -42 56 -42 10 0 -17 30 -38 41 -10 6 -18 6 -18
1z"/>
<path d="M3288 4623 c7 -3 16 -2 19 1 4 3 -2 6 -13 5 -11 0 -14 -3 -6 -6z"/>
<path d="M3285 4570 c-3 -5 -1 -10 4 -10 6 0 11 5 11 10 0 6 -2 10 -4 10 -3 0
-8 -4 -11 -10z"/>
<path d="M3048 3826 c-44 -60 -42 -286 2 -286 46 0 85 175 59 264 -15 52 -34
59 -61 22z"/>
<path d="M3305 3880 c-4 -6 -3 -16 3 -22 6 -6 12 -6 17 2 4 6 3 16 -3 22 -6 6
-12 6 -17 -2z"/>
<path d="M3916 3792 c-7 -21 1 -52 14 -52 4 0 13 7 20 15 9 11 8 18 -8 35 -20
21 -20 21 -26 2z"/>
<path d="M3490 3810 c0 -5 5 -10 10 -10 6 0 10 5 10 10 0 6 -4 10 -10 10 -5 0
-10 -4 -10 -10z"/>
<path d="M3643 3590 c-1 -43 7 -49 31 -25 15 16 11 44 -8 57 -18 13 -21 9 -23
-32z"/>
<path d="M3246 3435 c-9 -26 -7 -35 8 -35 23 0 30 20 14 37 -14 13 -16 13 -22
-2z"/>
<path d="M3946 3334 c-7 -19 -8 -54 -1 -54 14 0 44 42 39 55 -8 20 -30 19 -38
-1z"/>
<path d="M3440 3400 c0 -5 5 -10 10 -10 6 0 10 5 10 10 0 6 -4 10 -10 10 -5 0
-10 -4 -10 -10z"/>
<path d="M3510 3310 c-8 -5 -12 -12 -9 -15 8 -8 39 5 39 16 0 11 -11 11 -30
-1z"/>
<path d="M3220 2946 c0 -17 -37 -28 -46 -14 -4 6 -10 5 -15 -3 -17 -28 -9 -38
27 -36 30 2 38 8 50 35 11 27 11 32 -1 32 -8 0 -15 -6 -15 -14z"/>
<path d="M2990 2830 c0 -5 5 -10 10 -10 6 0 10 5 10 10 0 6 -4 10 -10 10 -5 0
-10 -4 -10 -10z"/>
<path d="M3950 2805 c0 -9 5 -15 11 -13 6 2 11 8 11 13 0 5 -5 11 -11 13 -6 2
-11 -4 -11 -13z"/>
<path d="M3602 2635 c-11 -12 -10 -15 3 -15 8 0 15 7 15 15 0 18 -2 18 -18 0z"/>
<path d="M3575 2601 c-3 -6 -1 -19 5 -30 5 -11 10 -29 10 -40 0 -12 4 -21 9
-21 13 0 22 28 12 35 -5 3 -7 13 -4 23 5 21 -22 49 -32 33z"/>
<path d="M3660 2380 c0 -5 5 -10 10 -10 6 0 10 5 10 10 0 6 -4 10 -10 10 -5 0
-10 -4 -10 -10z"/>
<path d="M3595 2350 c3 -5 13 -10 21 -10 8 0 14 5 14 10 0 6 -9 10 -21 10 -11
0 -17 -4 -14 -10z"/>
<path d="M3659 2333 c-20 -12 -28 -27 -33 -61 -3 -25 -4 -47 -2 -50 12 -11 26
13 26 43 0 19 5 37 10 40 6 3 10 -1 10 -9 0 -26 17 -18 24 10 9 36 -4 46 -35
27z"/>
<path d="M3585 2260 c3 -5 11 -10 16 -10 6 0 7 5 4 10 -3 6 -11 10 -16 10 -6
0 -7 -4 -4 -10z"/>
<path d="M3670 2251 c0 -5 -3 -16 -6 -25 -3 -9 -2 -16 4 -16 5 0 12 11 14 25
3 14 1 25 -3 25 -5 0 -9 -4 -9 -9z"/>
<path d="M3692 2078 c3 -7 13 -15 24 -17 16 -3 17 -1 5 13 -16 19 -34 21 -29
4z"/>
<path d="M3885 1891 c-3 -5 -1 -12 5 -16 5 -3 10 1 10 9 0 18 -6 21 -15 7z"/>
<path d="M3720 1401 c0 -6 4 -12 10 -16 5 -3 6 -13 3 -23 -6 -15 -3 -14 16 3
21 18 21 20 5 32 -21 15 -34 17 -34 4z"/>
<path d="M3807 1334 c-16 -19 -27 -37 -25 -39 8 -8 59 47 56 60 -2 11 -12 4
-31 -21z"/>
<path d="M3642 1201 c4 -13 18 -16 19 -4 0 4 -5 9 -11 12 -7 2 -11 -2 -8 -8z"/>
<path d="M3555 1171 c-3 -5 -1 -12 4 -15 5 -3 11 1 15 9 6 16 -9 21 -19 6z"/>
<path d="M3615 1154 c-10 -8 -27 -14 -36 -14 -23 0 -34 -19 -21 -32 6 -6 8
-16 6 -23 -4 -9 3 -11 23 -7 19 4 22 7 11 10 -10 2 -18 6 -18 9 0 12 46 40 59
35 11 -4 10 -8 -4 -19 -27 -19 -11 -28 25 -13 37 15 38 23 2 48 -24 18 -30 18
-47 6z"/>
<path d="M3690 1160 c0 -5 4 -10 9 -10 6 0 13 5 16 10 3 6 -1 10 -9 10 -9 0
-16 -4 -16 -10z"/>
<path d="M4116 1111 c-4 -7 -5 -15 -2 -18 9 -9 19 4 14 18 -4 11 -6 11 -12 0z"/>
<path d="M3471 1014 c0 -11 3 -14 6 -6 3 7 2 16 -1 19 -3 4 -6 -2 -5 -13z"/>
<path d="M3419 1018 c-1 -2 -3 -20 -4 -41 -2 -30 0 -35 11 -26 16 13 19 55 4
64 -5 3 -11 5 -11 3z"/>
<path d="M3460 920 c0 -16 5 -30 10 -30 6 0 10 14 10 30 0 17 -4 30 -10 30 -5
0 -10 -13 -10 -30z"/>
<path d="M3425 920 c3 -5 8 -10 11 -10 2 0 4 5 4 10 0 6 -5 10 -11 10 -5 0 -7
-4 -4 -10z"/>
<path d="M3200 793 c0 -13 29 -38 35 -31 3 3 -4 13 -15 23 -11 10 -20 13 -20
8z"/>
<path d="M3415 780 c-3 -5 -1 -10 4 -10 6 0 11 5 11 10 0 6 -2 10 -4 10 -3 0
-8 -4 -11 -10z"/>
<path d="M3290 701 c0 -6 4 -13 10 -16 6 -3 7 1 4 9 -7 18 -14 21 -14 7z"/>
<path d="M3772 419 c2 -6 8 -10 13 -10 5 0 11 4 13 10 2 6 -4 11 -13 11 -9 0
-15 -5 -13 -11z"/>
<path d="M4890 6179 c0 -16 -4 -19 -21 -14 -18 6 -17 2 10 -36 33 -45 41 -93
16 -103 -8 -3 -15 -10 -15 -15 0 -6 7 -8 17 -4 14 6 15 -1 10 -57 -4 -35 -7
-76 -7 -93 0 -26 -2 -28 -17 -16 -9 8 -15 10 -12 4 3 -5 11 -22 18 -37 19 -37
9 -55 -40 -70 l-42 -12 32 -13 c30 -13 31 -15 17 -35 -14 -19 -14 -23 1 -33
13 -9 13 -16 4 -34 -7 -12 -11 -27 -9 -33 2 -5 12 6 23 26 22 40 35 46 35 16
0 -11 4 -20 9 -20 5 0 15 -27 22 -61 16 -72 45 -108 36 -44 -4 22 -10 69 -15
105 -5 36 -14 75 -20 87 -18 32 -4 350 16 370 15 14 30 143 17 143 -3 0 -14
-14 -24 -31 l-19 -31 -7 31 c-7 35 -35 43 -35 10z"/>
<path d="M4969 5908 c-1 -18 -2 -47 -4 -65 -1 -18 1 -47 5 -65 6 -24 8 -5 9
65 1 53 -1 97 -4 97 -3 0 -5 -15 -6 -32z"/>
<path d="M2041 5810 c0 -8 6 -28 14 -45 17 -39 18 -21 0 25 -7 19 -14 28 -14
20z"/>
<path d="M2011 5785 c0 -11 4 -29 9 -40 8 -18 9 -18 9 5 0 14 -4 32 -9 40 -8
12 -10 12 -9 -5z"/>
<path d="M4963 5400 c0 -25 2 -35 4 -22 2 12 2 32 0 45 -2 12 -4 2 -4 -23z"/>
<path d="M4940 4864 c0 -14 4 -23 10 -19 6 3 10 15 10 26 0 10 -4 19 -10 19
-5 0 -10 -12 -10 -26z"/>
<path d="M2800 3082 c0 -31 4 -42 15 -42 8 0 15 7 15 16 0 9 8 23 18 30 16 13
16 13 -3 14 -12 0 -26 5 -33 12 -9 9 -12 3 -12 -30z"/>
<path d="M4099 2613 c0 -10 -2 -34 -4 -53 -4 -40 2 -70 16 -70 5 0 9 32 9 70
0 40 -4 70 -10 70 -5 0 -10 -8 -11 -17z"/>
<path d="M2827 2361 c-4 -18 -7 -55 -7 -82 0 -27 -4 -49 -10 -49 -5 0 -10 8
-10 18 0 9 -4 24 -9 31 -6 10 -8 1 -4 -25 4 -35 2 -41 -20 -51 -30 -14 -42
-67 -31 -139 6 -41 9 -45 19 -31 22 30 57 20 97 -25 21 -24 38 -50 38 -59 0
-9 9 -27 20 -40 l20 -24 -2 29 c-2 16 2 31 8 33 14 5 34 -48 34 -88 0 -33 -19
-39 -27 -9 -10 37 -24 20 -23 -27 1 -56 -2 -78 -18 -116 -7 -16 -12 -33 -12
-38 0 -13 18 -11 23 4 4 9 7 9 18 -1 11 -10 10 -18 -6 -48 -11 -20 -26 -39
-33 -42 -18 -6 -35 19 -22 32 16 16 12 26 -9 26 -10 0 -21 -7 -25 -15 -3 -9
-19 -15 -41 -15 -33 0 -38 4 -55 43 -11 23 -20 53 -20 67 l-1 25 -10 -25 c-6
-14 -9 -65 -7 -115 1 -49 -2 -96 -6 -104 -7 -11 -5 -13 8 -8 15 6 17 3 13 -15
-18 -76 -19 -119 -3 -131 9 -7 20 -26 25 -42 8 -26 10 -20 11 35 1 36 5 76 10
90 l7 25 11 -27 c15 -37 44 -80 49 -74 3 2 -3 18 -11 35 -26 48 -21 66 22 80
20 7 43 15 50 17 8 4 12 -8 13 -43 1 -61 17 -30 18 35 1 23 5 42 9 42 5 0 30
-41 57 -92 50 -94 69 -104 41 -21 -18 52 -15 64 12 40 28 -26 34 -20 17 14
-18 33 -14 49 8 31 7 -6 33 -14 57 -18 l45 -6 -60 36 c-60 36 -118 93 -110
106 3 4 22 10 42 14 21 3 49 16 63 27 20 17 21 20 5 14 -75 -25 -109 -13 -81
30 9 13 16 40 16 60 0 44 17 46 65 4 53 -47 42 -17 -15 40 -29 29 -45 53 -39
56 6 4 38 9 72 12 122 9 133 18 45 38 l-52 11 32 19 c41 25 40 32 -3 27 -42
-5 -44 6 -9 39 14 13 33 37 41 54 l16 30 -44 -36 c-47 -39 -128 -84 -136 -76
-2 3 0 22 6 44 6 21 10 56 10 78 -1 22 -3 31 -6 20 -11 -49 -26 -86 -33 -83
-11 4 -80 107 -80 119 0 5 15 18 33 29 17 11 28 20 22 21 -25 3 -51 -4 -67
-18 -17 -15 -18 -14 -18 9 0 14 11 63 24 109 14 46 23 85 21 87 -2 2 -14 -16
-26 -40 l-23 -43 -7 30 c-4 17 -7 24 -8 18 -2 -24 -20 -13 -23 15 -3 26 -3 26
-11 -7z m4 -251 c21 -12 26 -40 6 -40 -17 0 -37 20 -37 37 0 16 5 16 31 3z
m-71 -515 c0 -8 5 -15 10 -15 6 0 10 -7 10 -15 0 -18 -21 -20 -38 -3 -17 17
-15 48 3 48 8 0 15 -7 15 -15z"/>
<path d="M2766 1957 c-38 -28 -40 -215 -1 -247 34 -29 86 16 89 78 1 17 4 34
8 38 4 3 3 15 -2 25 -7 13 -5 22 7 34 15 15 15 16 -1 13 -10 -2 -23 9 -34 27
-27 47 -38 52 -66 32z"/>
<path d="M4140 1783 c0 -5 4 -15 10 -23 11 -18 25 -7 17 15 -6 15 -27 21 -27
8z"/>
<path d="M4074 730 c-32 -13 -36 -37 -15 -86 34 -77 119 -108 149 -54 17 31 2
100 -29 131 -20 20 -68 24 -105 9z"/>
<path d="M3070 89 c0 -5 5 -7 10 -4 6 3 10 8 10 11 0 2 -4 4 -10 4 -5 0 -10
-5 -10 -11z"/>
</g>
</svg>
