<svg version="1.1" xmlns="http://www.w3.org/2000/svg" viewBox="0 0 400 54">
<style type="text/css">
	.st0{fill:#ffffff;}
</style>
<title>ILOVELAMP-white-01</title>
<g>
	<path class="st0" d="M28.2,48.2V6.4h4.7v41.8H28.2z"/>
	<path class="st0" d="M150.4,48.2V6.4h4.7v37.5h17.2v4.3H150.4z"/>
	<path class="st0" d="M199.5,48.2l17.7-41.8h3.6l17.7,41.8h-5l-4.3-10.3h-20.3l-4.3,10.3H199.5z M210.7,33.6h16.7L219,13.7
		L210.7,33.6z"/>
	<path class="st0" d="M270.1,48.2V6.4h4.3l16,26.5l16-26.5h4.3v41.8H306V15.7l-15.6,25.6l-15.7-25.5v32.5H270.1z"/>
	<path class="st0" d="M345.7,48.2V6.4h13.4c3.5,0,6.6,1.2,9.1,3.7c2.5,2.4,3.7,5.4,3.7,9.1c0,3.7-1.3,6.7-3.7,9.1
		c-2.5,2.4-5.5,3.6-9.1,3.6h-8.7v16.4H345.7z M350.4,27.5h8.5c2.3,0,4.3-0.8,5.9-2.4c1.6-1.6,2.4-3.6,2.4-6s-0.8-4.4-2.4-6
		c-1.6-1.6-3.5-2.4-5.9-2.4h-8.5V27.5z"/>
	<path class="st0" d="M116.1,18.3c0,3.2-1.2,6.4-3.7,8.8l-21,21l-21-21c-4.9-4.9-4.9-12.8,0-17.7c2.4-2.4,5.6-3.7,8.9-3.7
		c3.2,0,6.4,1.2,8.8,3.7l3.3,3.3l3.3-3.3c4.9-4.9,12.8-4.9,17.7,0C114.8,11.9,116.1,15.1,116.1,18.3z"/>
</g>
</svg>
